<svg version="1.1" id="Layer_1" xmlns="http://www.w3.org/2000/svg" xmlns:xlink="http://www.w3.org/1999/xlink" x="0px" y="0px"
	 width="100%" viewBox="0 0 2048 2048" enable-background="new 0 0 2048 2048" xml:space="preserve">
<path fill="#FFFFFF" opacity="1.000000" stroke="none" 
	d="
M1160.000000,2049.000000 
	C773.333313,2049.000000 387.166656,2049.000000 1.000000,2049.000000 
	C1.000000,1366.333374 1.000000,683.666687 1.000000,1.000000 
	C683.666687,1.000000 1366.333374,1.000000 2049.000000,1.000000 
	C2049.000000,683.666687 2049.000000,1366.333374 2049.000000,2049.000000 
	C1752.833374,2049.000000 1456.666626,2049.000000 1160.000000,2049.000000 
M1369.500000,34.000000 
	C924.740234,34.000000 479.980469,34.000000 35.286198,34.000000 
	C35.286198,694.308044 35.286198,1354.043457 35.286198,2013.713867 
	C695.641235,2013.713867 1355.709961,2013.713867 2015.713989,2013.713867 
	C2015.713989,1353.692383 2015.713989,693.956848 2015.713989,34.000000 
	C1800.452026,34.000000 1585.476074,34.000000 1369.500000,34.000000 
z"/>
<path fill="#000000" opacity="1.000000" stroke="none" 
	d="
M1370.000000,34.000000 
	C1585.476074,34.000000 1800.452026,34.000000 2015.713989,34.000000 
	C2015.713989,693.956848 2015.713989,1353.692383 2015.713989,2013.713867 
	C1355.709961,2013.713867 695.641235,2013.713867 35.286198,2013.713867 
	C35.286198,1354.043457 35.286198,694.308044 35.286198,34.000000 
	C479.980469,34.000000 924.740234,34.000000 1370.000000,34.000000 
M438.624542,947.001587 
	C434.397339,945.146057 430.256531,943.049622 425.921570,941.494568 
	C420.196930,939.441101 414.414398,937.370728 408.486664,936.102844 
	C399.300446,934.138062 390.296478,935.491394 381.158783,937.858215 
	C365.916046,941.806274 352.875519,949.204041 342.143768,960.497009 
	C334.797760,968.227295 329.705841,977.476562 324.734039,986.989929 
	C317.723480,1000.404114 315.527130,1014.788269 314.327637,1029.233643 
	C313.515320,1039.016479 312.672974,1049.095215 315.771027,1059.100830 
	C318.188538,1066.908691 317.983368,1075.495361 319.991730,1083.472046 
	C322.402161,1093.045532 325.620819,1102.451660 329.056610,1111.720093 
	C332.103058,1119.938354 335.479584,1128.102417 339.540222,1135.855835 
	C343.105469,1142.663330 347.524139,1149.087646 352.101288,1155.285767 
	C358.400421,1163.815430 364.876160,1172.262451 371.893036,1180.199585 
	C377.664032,1186.727417 385.258881,1191.513550 393.547119,1193.751465 
	C403.045105,1196.316040 412.636505,1195.463379 422.090668,1191.169434 
	C431.073120,1187.089844 440.576019,1183.617676 450.212585,1181.698730 
	C457.076080,1180.331787 464.857941,1180.782227 471.657623,1182.582886 
	C480.532806,1184.932983 488.636414,1190.075684 497.441833,1192.838013 
	C512.185181,1197.463135 526.407043,1195.798340 538.653687,1185.671143 
	C543.252014,1181.868774 546.661377,1176.656494 551.117737,1172.648560 
	C560.322510,1164.369751 566.050598,1153.566650 572.000732,1143.182983 
	C578.317383,1132.159790 582.815979,1120.072021 587.702393,1108.280884 
	C588.311646,1106.810913 587.036682,1103.546387 585.606812,1102.429565 
	C580.761108,1098.645020 575.654114,1095.089600 570.277771,1092.113525 
	C561.042236,1087.001099 555.776001,1078.167114 551.435669,1069.628174 
	C547.183899,1061.263428 545.022888,1051.266113 544.306335,1041.806519 
	C543.210510,1027.341553 545.253601,1013.257324 553.621277,1000.315552 
	C559.213257,991.666870 564.756226,983.400696 573.158752,977.315613 
	C575.002686,975.980225 576.958191,974.666077 578.392334,972.949524 
	C579.196411,971.987183 579.771179,969.524780 579.199707,968.921326 
	C572.518616,961.865417 566.728333,954.054138 558.303955,948.559448 
	C544.734558,939.708984 529.931030,935.524597 514.068909,935.186523 
	C507.739899,935.051697 501.271881,936.605957 495.036804,938.099609 
	C486.934174,940.040649 478.371674,941.496094 471.142670,945.311890 
	C460.434998,950.963867 450.349884,952.628418 438.624542,947.001587 
M749.962280,1008.660156 
	C732.614197,965.163635 715.266113,921.667053 697.929626,878.199707 
	C678.941040,878.199707 660.167053,878.199707 641.197083,878.199707 
	C641.197083,983.466492 641.197083,1088.533569 641.197083,1194.000000 
	C654.176758,1194.000000 666.970703,1193.750488 679.746582,1194.122681 
	C684.871033,1194.271851 686.124878,1192.733521 686.112854,1187.698242 
	C685.945984,1117.869629 686.000000,1048.040527 686.000000,978.211609 
	C686.000000,976.235962 686.000000,974.260315 686.000000,971.492859 
	C687.703064,972.211609 689.369141,972.376038 689.880188,973.230896 
	C691.442200,975.844360 692.723450,978.660278 693.821045,981.510193 
	C697.663452,991.487000 701.253296,1001.562317 705.181946,1011.504333 
	C709.999695,1023.696106 715.097961,1035.776733 720.005676,1047.933350 
	C723.407532,1056.360229 726.647461,1064.852417 730.039368,1073.283325 
	C735.519043,1086.903564 741.116760,1100.476318 746.564697,1114.109131 
	C750.714722,1124.493896 754.716125,1134.938110 758.769348,1145.361450 
	C759.869751,1148.191284 760.859070,1151.065430 762.001160,1153.877808 
	C767.384827,1167.135498 772.803894,1180.378906 778.362366,1194.000000 
	C789.163025,1194.000000 800.653503,1193.948608 812.143005,1194.034546 
	C815.183899,1194.057373 816.816101,1192.878052 817.624023,1189.900879 
	C818.584412,1186.362061 819.826782,1182.881348 821.193420,1179.474365 
	C825.405457,1168.973633 829.768188,1158.533447 834.009399,1148.044312 
	C838.151733,1137.799561 842.181702,1127.509399 846.324585,1117.264893 
	C851.358887,1104.816040 856.521790,1092.418945 861.498779,1079.947388 
	C863.276062,1075.493652 864.468018,1070.804321 866.284607,1066.368896 
	C870.598999,1055.834473 875.212830,1045.422852 879.527771,1034.888672 
	C881.344421,1030.453735 882.500122,1025.747437 884.328186,1021.317993 
	C888.231384,1011.860352 892.447144,1002.532043 896.399170,993.093994 
	C899.048523,986.766968 901.378052,980.305298 904.069580,973.997253 
	C904.528687,972.921326 906.090820,972.315979 908.134277,970.718567 
	C908.134277,1046.222900 908.134277,1119.973145 908.134277,1193.739014 
	C923.588196,1193.739014 938.659729,1193.739014 953.741577,1193.739014 
	C953.741577,1088.410645 953.741577,983.343506 953.741577,878.000000 
	C937.015503,878.000000 920.546326,878.000000 904.077148,878.000000 
	C895.963684,878.000000 895.102051,878.704651 892.306580,886.237671 
	C888.922729,895.356201 885.458496,904.447571 881.854431,913.480957 
	C876.413574,927.118286 870.779480,940.678345 865.305481,954.302551 
	C859.824707,967.943726 854.468262,981.634827 849.005249,995.283203 
	C843.125488,1009.972595 837.125061,1024.613770 831.288330,1039.320068 
	C825.453735,1054.021240 819.755737,1068.776855 813.999451,1083.509033 
	C809.686890,1094.546265 805.358215,1105.577271 801.077637,1116.626831 
	C799.965515,1119.497559 799.006226,1122.427490 797.976746,1125.330200 
	C797.403931,1125.302979 796.831177,1125.275879 796.258362,1125.248657 
	C780.838867,1086.657349 765.419373,1048.066040 749.962280,1008.660156 
M1136.549438,1174.961182 
	C1141.316528,1170.433716 1143.326904,1163.399048 1150.136963,1158.868896 
	C1150.136963,1171.505371 1150.136963,1182.604492 1150.136963,1193.999634 
	C1164.785156,1193.999634 1179.083130,1193.953735 1193.380371,1194.037598 
	C1196.313965,1194.054810 1197.233032,1192.736206 1197.007080,1190.068604 
	C1196.647095,1185.819702 1196.072021,1181.568604 1196.039795,1177.315186 
	C1195.645386,1125.404663 1195.314331,1073.493652 1195.012451,1021.582581 
	C1194.930176,1007.418640 1195.000000,993.253845 1195.000000,979.089417 
	C1195.000000,973.148560 1195.000000,967.207703 1195.000000,961.258057 
	C1178.415649,961.258057 1162.345337,961.258057 1146.000000,961.258057 
	C1146.000000,963.150146 1146.000000,964.787109 1146.000000,966.424133 
	C1146.000000,1007.084290 1145.976562,1047.744507 1146.012573,1088.404663 
	C1146.025391,1102.952026 1145.181641,1117.004761 1137.265747,1130.199341 
	C1131.718262,1139.446289 1124.068481,1145.864746 1114.910767,1149.656372 
	C1104.832764,1153.828979 1093.729858,1153.928223 1082.641113,1152.118774 
	C1066.556641,1149.494263 1053.794922,1136.856934 1050.188599,1121.669556 
	C1048.134888,1113.020630 1047.198853,1103.921753 1047.135986,1095.015869 
	C1046.833496,1052.191528 1047.000000,1009.363831 1047.000000,966.537354 
	C1047.000000,964.769287 1047.000000,963.001282 1047.000000,961.000000 
	C1032.644287,961.000000 1018.838318,960.999756 1005.032349,961.000000 
	C998.005737,961.000122 998.001099,961.000488 998.000854,968.135254 
	C997.999329,1012.128235 997.747803,1056.123779 998.196533,1100.112305 
	C998.295349,1109.801514 998.425781,1119.582886 1000.687256,1129.346191 
	C1002.871033,1138.773804 1004.583130,1148.018799 1008.759949,1157.005859 
	C1014.070679,1168.432983 1022.244568,1177.277344 1031.745972,1184.499146 
	C1037.997314,1189.250732 1046.355591,1191.818726 1054.168213,1193.779663 
	C1064.028320,1196.254639 1074.191528,1197.087036 1084.576294,1196.201294 
	C1094.194336,1195.380981 1103.311890,1194.062622 1112.498169,1190.534058 
	C1121.603638,1187.036865 1128.799438,1181.440430 1136.549438,1174.961182 
M1278.678955,1189.998291 
	C1282.491699,1191.191650 1286.229858,1192.968750 1290.131470,1193.468262 
	C1301.460083,1194.919189 1312.917358,1197.174072 1324.205322,1196.632812 
	C1335.858643,1196.074219 1347.564575,1195.247192 1359.185913,1191.413452 
	C1374.575439,1186.336792 1387.919312,1178.905151 1398.935303,1167.375244 
	C1406.012329,1159.968140 1410.680786,1150.482666 1412.613037,1140.770142 
	C1414.907593,1129.237793 1416.078735,1117.212769 1411.174194,1105.468506 
	C1408.474243,1099.003052 1405.920776,1093.007812 1401.322998,1087.330444 
	C1392.762939,1076.760376 1381.034546,1071.727783 1369.303467,1067.475586 
	C1355.943237,1062.632690 1341.670898,1060.265991 1327.746216,1057.033447 
	C1316.332886,1054.384033 1304.725098,1052.406860 1294.281006,1046.692993 
	C1280.833740,1039.336060 1274.919312,1023.273621 1286.770752,1009.464050 
	C1291.918945,1003.465332 1298.510010,1000.254883 1305.352417,998.238098 
	C1317.341675,994.704407 1329.463501,994.685303 1341.512573,999.866272 
	C1355.817749,1006.017395 1363.394409,1016.578125 1365.343018,1031.795410 
	C1380.114990,1031.795410 1394.868652,1031.795410 1409.955566,1031.795410 
	C1410.313354,1020.079834 1407.899780,1009.456299 1402.733887,998.955444 
	C1396.446533,986.175537 1386.649048,977.117554 1374.955811,970.164307 
	C1361.453735,962.135437 1346.285034,958.616699 1330.612549,958.101990 
	C1322.883301,957.848083 1315.118896,958.937622 1307.370361,958.936829 
	C1295.484497,958.935608 1284.622070,962.810913 1273.805420,967.030212 
	C1271.419434,967.960999 1268.733154,968.578552 1266.790405,970.108704 
	C1259.255371,976.043823 1250.821899,980.896118 1245.216797,989.160400 
	C1239.718628,997.266785 1235.013428,1005.938965 1234.266724,1015.528381 
	C1233.286011,1028.124023 1232.931763,1040.881836 1238.854736,1052.996582 
	C1242.540894,1060.536133 1247.305420,1067.283569 1253.426514,1072.426392 
	C1259.294922,1077.357178 1266.584595,1081.076782 1273.826904,1083.785278 
	C1286.390015,1088.483765 1299.325317,1092.247925 1312.240845,1095.925659 
	C1324.846436,1099.515503 1338.032959,1100.615112 1350.313843,1105.887451 
	C1363.931152,1111.733643 1370.202393,1131.294312 1361.418945,1143.066650 
	C1354.519043,1152.314697 1343.995972,1155.289673 1333.698120,1157.800049 
	C1324.322266,1160.085693 1314.758423,1159.163330 1305.309814,1156.145630 
	C1297.553223,1153.668701 1290.509399,1150.790894 1284.848511,1144.530884 
	C1279.255371,1138.345947 1276.629517,1131.211182 1275.736450,1123.242920 
	C1259.113525,1123.242920 1242.738159,1123.242920 1226.011719,1123.242920 
	C1227.056641,1127.762451 1228.126099,1131.947510 1228.980469,1136.176147 
	C1230.774902,1145.057129 1233.571289,1153.437134 1238.917969,1160.966553 
	C1243.290405,1167.124023 1248.401367,1172.354248 1254.245605,1177.108521 
	C1261.364868,1182.900024 1269.416992,1186.727539 1278.678955,1189.998291 
M1533.000000,1098.473633 
	C1533.991821,1102.657349 1535.128784,1106.812988 1535.946045,1111.030640 
	C1537.810669,1120.655029 1539.471802,1130.282104 1544.911255,1138.793823 
	C1549.434448,1145.871826 1552.736206,1153.905029 1558.085449,1160.243774 
	C1568.708252,1172.831421 1581.609375,1182.803345 1597.619263,1187.932129 
	C1607.861816,1191.213379 1618.173828,1194.404175 1629.015503,1194.972778 
	C1645.787598,1195.852661 1662.143921,1194.056152 1678.198853,1188.551270 
	C1689.821289,1184.566406 1699.828003,1178.271362 1708.965454,1170.416260 
	C1713.286255,1166.701904 1717.725952,1162.746460 1720.789917,1158.039917 
	C1725.192383,1151.276978 1729.083740,1143.989136 1731.911499,1136.444824 
	C1735.016968,1128.160034 1736.667725,1119.329834 1739.090576,1110.216919 
	C1722.261108,1110.216919 1706.826294,1110.216919 1692.322998,1110.216919 
	C1689.027588,1117.264648 1686.190430,1124.061401 1682.746948,1130.535767 
	C1676.635864,1142.026123 1666.664307,1148.657593 1654.151367,1151.354004 
	C1639.822021,1154.441772 1626.027954,1153.916260 1612.646118,1146.426514 
	C1599.464233,1139.048462 1591.855591,1127.345825 1586.417114,1114.284302 
	C1583.194092,1106.543701 1581.541748,1097.702148 1581.236938,1089.281372 
	C1580.477051,1068.272583 1579.654175,1047.019897 1591.473999,1027.997192 
	C1593.154053,1025.293579 1594.007324,1021.947571 1596.071777,1019.639954 
	C1599.510864,1015.795410 1603.899536,1012.806030 1607.386475,1008.997131 
	C1613.746948,1002.049438 1622.646851,1000.404968 1630.880249,998.322571 
	C1638.193848,996.472717 1646.219971,996.670166 1653.665161,999.967224 
	C1658.334106,1002.034729 1663.983276,1002.653748 1667.831055,1005.663391 
	C1678.433594,1013.956116 1687.298096,1023.913269 1689.918823,1037.809937 
	C1690.518677,1040.990479 1691.625366,1042.210815 1694.956787,1042.062866 
	C1706.197632,1041.564331 1717.452759,1041.400024 1728.696655,1040.957031 
	C1731.831909,1040.833496 1734.946533,1040.189331 1738.811523,1039.687988 
	C1737.732910,1035.696167 1736.595947,1032.534302 1736.044800,1029.273438 
	C1733.185791,1012.360901 1725.378052,997.895752 1713.821167,985.533752 
	C1709.395386,980.799500 1703.838867,977.080383 1698.610962,973.146790 
	C1687.335693,964.663269 1674.496582,959.547485 1660.581787,958.172974 
	C1648.753296,957.004639 1636.772949,957.005859 1624.867676,957.147217 
	C1619.443115,957.211609 1613.969360,958.577148 1608.636841,959.850403 
	C1597.258789,962.567261 1586.539062,967.054138 1577.153931,974.075439 
	C1570.853271,978.789124 1564.264771,983.572083 1559.347656,989.585388 
	C1549.470581,1001.664673 1541.739258,1015.217224 1538.063477,1030.606079 
	C1535.716675,1040.430786 1532.927490,1050.335693 1532.272949,1060.331299 
	C1531.464966,1072.669434 1532.666626,1085.139160 1533.000000,1098.473633 
M1450.000000,1108.500000 
	C1450.000000,1136.927612 1450.000000,1165.355225 1450.000000,1193.710815 
	C1466.312500,1193.710815 1482.050903,1193.710815 1497.713623,1193.710815 
	C1497.713623,1116.020874 1497.713623,1038.620483 1497.713623,961.289185 
	C1481.687500,961.289185 1465.949097,961.289185 1450.000000,961.289185 
	C1450.000000,1010.218689 1450.000000,1058.859375 1450.000000,1108.500000 
M503.522980,905.988281 
	C505.510254,903.004150 508.028137,900.242859 509.391632,896.996704 
	C514.860596,883.976562 519.308716,870.654297 517.911133,856.195740 
	C517.802734,855.074768 516.281616,853.075073 515.693970,853.171448 
	C509.220551,854.233398 502.473419,854.780945 496.438690,857.116882 
	C484.729584,861.649170 474.186279,868.424377 466.774078,878.866821 
	C461.754761,885.938110 456.998444,893.310181 453.114044,901.044739 
	C447.985046,911.257446 448.212341,922.448425 449.185669,933.548462 
	C468.553528,937.408691 491.845795,923.090271 503.522980,905.988281 
M1447.996582,911.491455 
	C1450.112793,915.580505 1451.267456,920.873230 1454.553345,923.498230 
	C1460.651123,928.369629 1467.613770,931.649414 1476.358154,931.259949 
	C1487.758423,930.752197 1498.528076,922.934204 1501.387573,913.631409 
	C1506.893188,895.720093 1501.491211,882.112671 1484.744507,875.327820 
	C1472.556519,870.389893 1454.417969,874.883728 1448.663940,890.795349 
	C1448.022705,892.568726 1446.751221,894.235718 1446.572510,896.031677 
	C1446.082642,900.955811 1444.369263,906.088196 1447.996582,911.491455 
z"/>
<path fill="#FFFFFF" opacity="1.000000" stroke="none" 
	d="
M439.026794,947.023315 
	C450.349884,952.628418 460.434998,950.963867 471.142670,945.311890 
	C478.371674,941.496094 486.934174,940.040649 495.036804,938.099609 
	C501.271881,936.605957 507.739899,935.051697 514.068909,935.186523 
	C529.931030,935.524597 544.734558,939.708984 558.303955,948.559448 
	C566.728333,954.054138 572.518616,961.865417 579.199707,968.921326 
	C579.771179,969.524780 579.196411,971.987183 578.392334,972.949524 
	C576.958191,974.666077 575.002686,975.980225 573.158752,977.315613 
	C564.756226,983.400696 559.213257,991.666870 553.621277,1000.315552 
	C545.253601,1013.257324 543.210510,1027.341553 544.306335,1041.806519 
	C545.022888,1051.266113 547.183899,1061.263428 551.435669,1069.628174 
	C555.776001,1078.167114 561.042236,1087.001099 570.277771,1092.113525 
	C575.654114,1095.089600 580.761108,1098.645020 585.606812,1102.429565 
	C587.036682,1103.546387 588.311646,1106.810913 587.702393,1108.280884 
	C582.815979,1120.072021 578.317383,1132.159790 572.000732,1143.182983 
	C566.050598,1153.566650 560.322510,1164.369751 551.117737,1172.648560 
	C546.661377,1176.656494 543.252014,1181.868774 538.653687,1185.671143 
	C526.407043,1195.798340 512.185181,1197.463135 497.441833,1192.838013 
	C488.636414,1190.075684 480.532806,1184.932983 471.657623,1182.582886 
	C464.857941,1180.782227 457.076080,1180.331787 450.212585,1181.698730 
	C440.576019,1183.617676 431.073120,1187.089844 422.090668,1191.169434 
	C412.636505,1195.463379 403.045105,1196.316040 393.547119,1193.751465 
	C385.258881,1191.513550 377.664032,1186.727417 371.893036,1180.199585 
	C364.876160,1172.262451 358.400421,1163.815430 352.101288,1155.285767 
	C347.524139,1149.087646 343.105469,1142.663330 339.540222,1135.855835 
	C335.479584,1128.102417 332.103058,1119.938354 329.056610,1111.720093 
	C325.620819,1102.451660 322.402161,1093.045532 319.991730,1083.472046 
	C317.983368,1075.495361 318.188538,1066.908691 315.771027,1059.100830 
	C312.672974,1049.095215 313.515320,1039.016479 314.327637,1029.233643 
	C315.527130,1014.788269 317.723480,1000.404114 324.734039,986.989929 
	C329.705841,977.476562 334.797760,968.227295 342.143768,960.497009 
	C352.875519,949.204041 365.916046,941.806274 381.158783,937.858215 
	C390.296478,935.491394 399.300446,934.138062 408.486664,936.102844 
	C414.414398,937.370728 420.196930,939.441101 425.921570,941.494568 
	C430.256531,943.049622 434.397339,945.146057 439.026794,947.023315 
z"/>
<path fill="#FFFFFF" opacity="1.000000" stroke="none" 
	d="
M749.981079,1009.067383 
	C765.419373,1048.066040 780.838867,1086.657349 796.258362,1125.248657 
	C796.831177,1125.275879 797.403931,1125.302979 797.976746,1125.330200 
	C799.006226,1122.427490 799.965515,1119.497559 801.077637,1116.626831 
	C805.358215,1105.577271 809.686890,1094.546265 813.999451,1083.509033 
	C819.755737,1068.776855 825.453735,1054.021240 831.288330,1039.320068 
	C837.125061,1024.613770 843.125488,1009.972595 849.005249,995.283203 
	C854.468262,981.634827 859.824707,967.943726 865.305481,954.302551 
	C870.779480,940.678345 876.413574,927.118286 881.854431,913.480957 
	C885.458496,904.447571 888.922729,895.356201 892.306580,886.237671 
	C895.102051,878.704651 895.963684,878.000000 904.077148,878.000000 
	C920.546326,878.000000 937.015503,878.000000 953.741577,878.000000 
	C953.741577,983.343506 953.741577,1088.410645 953.741577,1193.739014 
	C938.659729,1193.739014 923.588196,1193.739014 908.134277,1193.739014 
	C908.134277,1119.973145 908.134277,1046.222900 908.134277,970.718567 
	C906.090820,972.315979 904.528687,972.921326 904.069580,973.997253 
	C901.378052,980.305298 899.048523,986.766968 896.399170,993.093994 
	C892.447144,1002.532043 888.231384,1011.860352 884.328186,1021.317993 
	C882.500122,1025.747437 881.344421,1030.453735 879.527771,1034.888672 
	C875.212830,1045.422852 870.598999,1055.834473 866.284607,1066.368896 
	C864.468018,1070.804321 863.276062,1075.493652 861.498779,1079.947388 
	C856.521790,1092.418945 851.358887,1104.816040 846.324585,1117.264893 
	C842.181702,1127.509399 838.151733,1137.799561 834.009399,1148.044312 
	C829.768188,1158.533447 825.405457,1168.973633 821.193420,1179.474365 
	C819.826782,1182.881348 818.584412,1186.362061 817.624023,1189.900879 
	C816.816101,1192.878052 815.183899,1194.057373 812.143005,1194.034546 
	C800.653503,1193.948608 789.163025,1194.000000 778.362366,1194.000000 
	C772.803894,1180.378906 767.384827,1167.135498 762.001160,1153.877808 
	C760.859070,1151.065430 759.869751,1148.191284 758.769348,1145.361450 
	C754.716125,1134.938110 750.714722,1124.493896 746.564697,1114.109131 
	C741.116760,1100.476318 735.519043,1086.903564 730.039368,1073.283325 
	C726.647461,1064.852417 723.407532,1056.360229 720.005676,1047.933350 
	C715.097961,1035.776733 709.999695,1023.696106 705.181946,1011.504333 
	C701.253296,1001.562317 697.663452,991.487000 693.821045,981.510193 
	C692.723450,978.660278 691.442200,975.844360 689.880188,973.230896 
	C689.369141,972.376038 687.703064,972.211609 686.000000,971.492859 
	C686.000000,974.260315 686.000000,976.235962 686.000000,978.211609 
	C686.000000,1048.040527 685.945984,1117.869629 686.112854,1187.698242 
	C686.124878,1192.733521 684.871033,1194.271851 679.746582,1194.122681 
	C666.970703,1193.750488 654.176758,1194.000000 641.197083,1194.000000 
	C641.197083,1088.533569 641.197083,983.466492 641.197083,878.199707 
	C660.167053,878.199707 678.941040,878.199707 697.929626,878.199707 
	C715.266113,921.667053 732.614197,965.163635 749.981079,1009.067383 
z"/>
<path fill="#FFFFFF" opacity="1.000000" stroke="none" 
	d="
M1136.285156,1175.212769 
	C1128.799438,1181.440430 1121.603638,1187.036865 1112.498169,1190.534058 
	C1103.311890,1194.062622 1094.194336,1195.380981 1084.576294,1196.201294 
	C1074.191528,1197.087036 1064.028320,1196.254639 1054.168213,1193.779663 
	C1046.355591,1191.818726 1037.997314,1189.250732 1031.745972,1184.499146 
	C1022.244568,1177.277344 1014.070679,1168.432983 1008.759949,1157.005859 
	C1004.583130,1148.018799 1002.871033,1138.773804 1000.687256,1129.346191 
	C998.425781,1119.582886 998.295349,1109.801514 998.196533,1100.112305 
	C997.747803,1056.123779 997.999329,1012.128235 998.000854,968.135254 
	C998.001099,961.000488 998.005737,961.000122 1005.032349,961.000000 
	C1018.838318,960.999756 1032.644287,961.000000 1047.000000,961.000000 
	C1047.000000,963.001282 1047.000000,964.769287 1047.000000,966.537354 
	C1047.000000,1009.363831 1046.833496,1052.191528 1047.135986,1095.015869 
	C1047.198853,1103.921753 1048.134888,1113.020630 1050.188599,1121.669556 
	C1053.794922,1136.856934 1066.556641,1149.494263 1082.641113,1152.118774 
	C1093.729858,1153.928223 1104.832764,1153.828979 1114.910767,1149.656372 
	C1124.068481,1145.864746 1131.718262,1139.446289 1137.265747,1130.199341 
	C1145.181641,1117.004761 1146.025391,1102.952026 1146.012573,1088.404663 
	C1145.976562,1047.744507 1146.000000,1007.084290 1146.000000,966.424133 
	C1146.000000,964.787109 1146.000000,963.150146 1146.000000,961.258057 
	C1162.345337,961.258057 1178.415649,961.258057 1195.000000,961.258057 
	C1195.000000,967.207703 1195.000000,973.148560 1195.000000,979.089417 
	C1195.000000,993.253845 1194.930176,1007.418640 1195.012451,1021.582581 
	C1195.314331,1073.493652 1195.645386,1125.404663 1196.039795,1177.315186 
	C1196.072021,1181.568604 1196.647095,1185.819702 1197.007080,1190.068604 
	C1197.233032,1192.736206 1196.313965,1194.054810 1193.380371,1194.037598 
	C1179.083130,1193.953735 1164.785156,1193.999634 1150.136963,1193.999634 
	C1150.136963,1182.604492 1150.136963,1171.505371 1150.136963,1158.868896 
	C1143.326904,1163.399048 1141.316528,1170.433716 1136.285156,1175.212769 
z"/>
<path fill="#FFFFFF" opacity="1.000000" stroke="none" 
	d="
M1278.265503,1189.985962 
	C1269.416992,1186.727539 1261.364868,1182.900024 1254.245605,1177.108521 
	C1248.401367,1172.354248 1243.290405,1167.124023 1238.917969,1160.966553 
	C1233.571289,1153.437134 1230.774902,1145.057129 1228.980469,1136.176147 
	C1228.126099,1131.947510 1227.056641,1127.762451 1226.011719,1123.242920 
	C1242.738159,1123.242920 1259.113525,1123.242920 1275.736450,1123.242920 
	C1276.629517,1131.211182 1279.255371,1138.345947 1284.848511,1144.530884 
	C1290.509399,1150.790894 1297.553223,1153.668701 1305.309814,1156.145630 
	C1314.758423,1159.163330 1324.322266,1160.085693 1333.698120,1157.800049 
	C1343.995972,1155.289673 1354.519043,1152.314697 1361.418945,1143.066650 
	C1370.202393,1131.294312 1363.931152,1111.733643 1350.313843,1105.887451 
	C1338.032959,1100.615112 1324.846436,1099.515503 1312.240845,1095.925659 
	C1299.325317,1092.247925 1286.390015,1088.483765 1273.826904,1083.785278 
	C1266.584595,1081.076782 1259.294922,1077.357178 1253.426514,1072.426392 
	C1247.305420,1067.283569 1242.540894,1060.536133 1238.854736,1052.996582 
	C1232.931763,1040.881836 1233.286011,1028.124023 1234.266724,1015.528381 
	C1235.013428,1005.938965 1239.718628,997.266785 1245.216797,989.160400 
	C1250.821899,980.896118 1259.255371,976.043823 1266.790405,970.108704 
	C1268.733154,968.578552 1271.419434,967.960999 1273.805420,967.030212 
	C1284.622070,962.810913 1295.484497,958.935608 1307.370361,958.936829 
	C1315.118896,958.937622 1322.883301,957.848083 1330.612549,958.101990 
	C1346.285034,958.616699 1361.453735,962.135437 1374.955811,970.164307 
	C1386.649048,977.117554 1396.446533,986.175537 1402.733887,998.955444 
	C1407.899780,1009.456299 1410.313354,1020.079834 1409.955566,1031.795410 
	C1394.868652,1031.795410 1380.114990,1031.795410 1365.343018,1031.795410 
	C1363.394409,1016.578125 1355.817749,1006.017395 1341.512573,999.866272 
	C1329.463501,994.685303 1317.341675,994.704407 1305.352417,998.238098 
	C1298.510010,1000.254883 1291.918945,1003.465332 1286.770752,1009.464050 
	C1274.919312,1023.273621 1280.833740,1039.336060 1294.281006,1046.692993 
	C1304.725098,1052.406860 1316.332886,1054.384033 1327.746216,1057.033447 
	C1341.670898,1060.265991 1355.943237,1062.632690 1369.303467,1067.475586 
	C1381.034546,1071.727783 1392.762939,1076.760376 1401.322998,1087.330444 
	C1405.920776,1093.007812 1408.474243,1099.003052 1411.174194,1105.468506 
	C1416.078735,1117.212769 1414.907593,1129.237793 1412.613037,1140.770142 
	C1410.680786,1150.482666 1406.012329,1159.968140 1398.935303,1167.375244 
	C1387.919312,1178.905151 1374.575439,1186.336792 1359.185913,1191.413452 
	C1347.564575,1195.247192 1335.858643,1196.074219 1324.205322,1196.632812 
	C1312.917358,1197.174072 1301.460083,1194.919189 1290.131470,1193.468262 
	C1286.229858,1192.968750 1282.491699,1191.191650 1278.265503,1189.985962 
z"/>
<path fill="#FFFFFF" opacity="1.000000" stroke="none" 
	d="
M1533.000000,1098.012817 
	C1532.666626,1085.139160 1531.464966,1072.669434 1532.272949,1060.331299 
	C1532.927490,1050.335693 1535.716675,1040.430786 1538.063477,1030.606079 
	C1541.739258,1015.217224 1549.470581,1001.664673 1559.347656,989.585388 
	C1564.264771,983.572083 1570.853271,978.789124 1577.153931,974.075439 
	C1586.539062,967.054138 1597.258789,962.567261 1608.636841,959.850403 
	C1613.969360,958.577148 1619.443115,957.211609 1624.867676,957.147217 
	C1636.772949,957.005859 1648.753296,957.004639 1660.581787,958.172974 
	C1674.496582,959.547485 1687.335693,964.663269 1698.610962,973.146790 
	C1703.838867,977.080383 1709.395386,980.799500 1713.821167,985.533752 
	C1725.378052,997.895752 1733.185791,1012.360901 1736.044800,1029.273438 
	C1736.595947,1032.534302 1737.732910,1035.696167 1738.811523,1039.687988 
	C1734.946533,1040.189331 1731.831909,1040.833496 1728.696655,1040.957031 
	C1717.452759,1041.400024 1706.197632,1041.564331 1694.956787,1042.062866 
	C1691.625366,1042.210815 1690.518677,1040.990479 1689.918823,1037.809937 
	C1687.298096,1023.913269 1678.433594,1013.956116 1667.831055,1005.663391 
	C1663.983276,1002.653748 1658.334106,1002.034729 1653.665161,999.967224 
	C1646.219971,996.670166 1638.193848,996.472717 1630.880249,998.322571 
	C1622.646851,1000.404968 1613.746948,1002.049438 1607.386475,1008.997131 
	C1603.899536,1012.806030 1599.510864,1015.795410 1596.071777,1019.639954 
	C1594.007324,1021.947571 1593.154053,1025.293579 1591.473999,1027.997192 
	C1579.654175,1047.019897 1580.477051,1068.272583 1581.236938,1089.281372 
	C1581.541748,1097.702148 1583.194092,1106.543701 1586.417114,1114.284302 
	C1591.855591,1127.345825 1599.464233,1139.048462 1612.646118,1146.426514 
	C1626.027954,1153.916260 1639.822021,1154.441772 1654.151367,1151.354004 
	C1666.664307,1148.657593 1676.635864,1142.026123 1682.746948,1130.535767 
	C1686.190430,1124.061401 1689.027588,1117.264648 1692.322998,1110.216919 
	C1706.826294,1110.216919 1722.261108,1110.216919 1739.090576,1110.216919 
	C1736.667725,1119.329834 1735.016968,1128.160034 1731.911499,1136.444824 
	C1729.083740,1143.989136 1725.192383,1151.276978 1720.789917,1158.039917 
	C1717.725952,1162.746460 1713.286255,1166.701904 1708.965454,1170.416260 
	C1699.828003,1178.271362 1689.821289,1184.566406 1678.198853,1188.551270 
	C1662.143921,1194.056152 1645.787598,1195.852661 1629.015503,1194.972778 
	C1618.173828,1194.404175 1607.861816,1191.213379 1597.619263,1187.932129 
	C1581.609375,1182.803345 1568.708252,1172.831421 1558.085449,1160.243774 
	C1552.736206,1153.905029 1549.434448,1145.871826 1544.911255,1138.793823 
	C1539.471802,1130.282104 1537.810669,1120.655029 1535.946045,1111.030640 
	C1535.128784,1106.812988 1533.991821,1102.657349 1533.000000,1098.012817 
z"/>
<path fill="#FFFFFF" opacity="1.000000" stroke="none" 
	d="
M1450.000000,1108.000000 
	C1450.000000,1058.859375 1450.000000,1010.218689 1450.000000,961.289185 
	C1465.949097,961.289185 1481.687500,961.289185 1497.713623,961.289185 
	C1497.713623,1038.620483 1497.713623,1116.020874 1497.713623,1193.710815 
	C1482.050903,1193.710815 1466.312500,1193.710815 1450.000000,1193.710815 
	C1450.000000,1165.355225 1450.000000,1136.927612 1450.000000,1108.000000 
z"/>
<path fill="#FFFFFF" opacity="1.000000" stroke="none" 
	d="
M503.280884,906.275879 
	C491.845795,923.090271 468.553528,937.408691 449.185669,933.548462 
	C448.212341,922.448425 447.985046,911.257446 453.114044,901.044739 
	C456.998444,893.310181 461.754761,885.938110 466.774078,878.866821 
	C474.186279,868.424377 484.729584,861.649170 496.438690,857.116882 
	C502.473419,854.780945 509.220551,854.233398 515.693970,853.171448 
	C516.281616,853.075073 517.802734,855.074768 517.911133,856.195740 
	C519.308716,870.654297 514.860596,883.976562 509.391632,896.996704 
	C508.028137,900.242859 505.510254,903.004150 503.280884,906.275879 
z"/>
<path fill="#FFFFFF" opacity="1.000000" stroke="none" 
	d="
M1447.975098,911.072998 
	C1444.369263,906.088196 1446.082642,900.955811 1446.572510,896.031677 
	C1446.751221,894.235718 1448.022705,892.568726 1448.663940,890.795349 
	C1454.417969,874.883728 1472.556519,870.389893 1484.744507,875.327820 
	C1501.491211,882.112671 1506.893188,895.720093 1501.387573,913.631409 
	C1498.528076,922.934204 1487.758423,930.752197 1476.358154,931.259949 
	C1467.613770,931.649414 1460.651123,928.369629 1454.553345,923.498230 
	C1451.267456,920.873230 1450.112793,915.580505 1447.975098,911.072998 
z"/>
</svg>