<svg version="1.1" id="Layer_1" xmlns="http://www.w3.org/2000/svg" xmlns:xlink="http://www.w3.org/1999/xlink" x="0px" y="0px"
	 width="100%" viewBox="0 0 1024 1024" enable-background="new 0 0 1024 1024" xml:space="preserve">
<path fill="#000000" opacity="1.000000" stroke="none" 
	d="
M532.000000,1025.000000 
	C519.645752,1025.000000 507.291534,1025.000000 494.220581,1024.653809 
	C486.071014,1023.872192 478.618011,1023.651184 471.209900,1022.953491 
	C458.416321,1021.748474 445.504730,1021.031799 432.907318,1018.687744 
	C413.708435,1015.115417 394.662659,1010.627197 375.682861,1005.991699 
	C347.082397,999.006592 319.805847,988.214417 293.279602,975.596558 
	C260.691101,960.095032 229.753998,941.755798 201.561371,919.139038 
	C186.113556,906.746521 170.921173,893.973572 156.350845,880.570679 
	C146.370667,871.390137 137.198212,861.215027 128.492950,850.792725 
	C115.821266,835.621643 103.342545,820.226562 91.782829,804.204590 
	C75.248413,781.287476 61.067863,756.861938 49.583305,730.996338 
	C42.697037,715.487122 35.893009,699.898926 30.039572,683.983032 
	C19.799002,656.138184 12.126031,627.524719 7.982580,598.103638 
	C5.550250,580.832581 3.976177,563.440918 1.971385,546.108704 
	C1.848837,545.049194 1.332893,544.035156 0.999995,543.000000 
	C1.000000,522.979126 1.000000,502.958221 1.344716,482.223145 
	C2.483483,471.135132 2.676142,460.671539 4.209100,450.408081 
	C6.657896,434.012878 9.700351,417.690094 13.020088,401.444611 
	C20.539040,364.649811 33.015991,329.472107 48.866154,295.494812 
	C61.801414,267.766083 76.685165,241.059326 95.124405,216.618500 
	C109.115646,198.073410 123.698509,179.876526 139.257172,162.643356 
	C151.567917,149.007660 165.292450,136.526016 179.250534,124.534515 
	C193.098251,112.637848 207.679977,101.513893 222.550873,90.907890 
	C248.698151,72.259537 276.748260,56.789181 306.214081,44.025436 
	C320.259460,37.941387 334.438721,31.979145 348.981140,27.270756 
	C374.941925,18.865465 401.213623,11.354335 428.387634,7.820186 
	C445.028046,5.655994 461.726257,3.937163 478.393921,1.979351 
	C479.946198,1.797016 481.465424,1.333149 483.000000,1.000000 
	C502.687561,1.000000 522.375122,1.000000 542.777832,1.345290 
	C559.872070,3.447885 576.296875,4.862558 592.619446,7.042362 
	C617.438904,10.356885 641.678284,16.397974 665.586426,23.799772 
	C703.750427,35.615070 739.957642,51.892189 774.310669,72.187790 
	C808.115540,92.159538 839.153076,115.962440 867.405457,143.172897 
	C881.358093,156.610962 894.580688,170.936462 906.997070,185.809265 
	C924.636230,206.938141 940.258972,229.564041 954.295532,253.341431 
	C971.406372,282.326660 985.539917,312.631805 996.564697,344.345673 
	C1007.877625,376.888550 1016.303223,410.205017 1020.017212,444.552338 
	C1021.612366,459.304047 1022.671387,474.113434 1024.027466,488.891724 
	C1024.154785,490.279236 1024.666626,491.631409 1025.000000,493.000000 
	C1025.000000,505.687561 1025.000000,518.375122 1024.653809,531.779419 
	C1023.208679,546.486145 1022.804688,560.574402 1020.844604,574.442749 
	C1018.041260,594.276917 1014.954346,614.147095 1010.462097,633.650269 
	C1001.775146,671.364258 988.199402,707.472351 970.869873,742.056030 
	C958.889465,765.964661 945.574829,789.210754 929.147766,810.395203 
	C915.106323,828.503174 900.693726,846.367554 885.598511,863.597778 
	C876.319214,874.189392 865.650513,883.607605 855.231384,893.143677 
	C845.974854,901.615540 836.572815,910.013123 826.579712,917.577881 
	C805.943176,933.199707 784.483398,947.580627 761.809448,960.229675 
	C737.951904,973.539124 713.278137,984.858276 687.638489,994.145081 
	C655.373657,1005.831604 622.419495,1014.920654 588.274536,1019.007080 
	C570.934082,1021.082397 553.496948,1022.347290 536.108093,1024.026245 
	C534.720337,1024.160156 533.368530,1024.666748 532.000000,1025.000000 
M700.814026,452.709717 
	C694.523804,450.187561 688.427490,446.874268 681.910645,445.276459 
	C648.891113,437.180878 620.291321,443.686462 598.644226,471.746704 
	C598.449402,471.999268 597.733032,471.849487 596.682495,471.934082 
	C596.682495,437.939301 596.682495,404.072571 596.682495,369.770233 
	C594.488159,369.770233 592.861023,369.769806 591.233826,369.770294 
	C577.909241,369.774261 564.584656,369.782288 551.260071,369.781921 
	C444.114624,369.778931 336.969177,369.786316 229.823792,369.702759 
	C227.078217,369.700592 225.861053,370.640381 224.593506,372.991119 
	C204.449295,410.349731 184.173203,447.637238 163.940689,484.948273 
	C138.571411,531.732117 113.209251,578.519775 87.856804,625.312744 
	C83.312027,633.701050 78.829094,642.122864 73.941620,651.229736 
	C76.722916,651.229736 78.664856,651.229736 80.606796,651.229736 
	C181.086899,651.229736 281.567017,651.233521 382.047119,651.220520 
	C388.203430,651.219727 395.568512,653.141296 400.174469,650.432739 
	C404.736023,647.750366 406.587799,640.375427 409.503387,634.991150 
	C454.666534,551.587402 499.807098,468.171448 544.963257,384.763947 
	C547.341980,380.370178 549.812988,376.026367 552.241028,371.659271 
	C552.543396,371.771240 552.845825,371.883179 553.148193,371.995117 
	C553.148193,465.230499 553.148193,558.465881 553.148193,651.654785 
	C567.043396,651.654785 580.591797,651.654785 594.229797,651.654785 
	C594.229797,644.644897 594.144958,637.978882 594.296448,631.318298 
	C594.329407,629.867615 595.207764,628.436096 595.719849,626.927856 
	C599.655640,631.529053 602.750000,635.892639 606.572449,639.480591 
	C620.019836,652.102966 636.813965,656.120483 654.564758,657.160461 
	C694.349365,659.491333 721.623657,643.482605 737.499573,607.289185 
	C750.704590,577.184631 751.752136,545.726562 744.275085,514.022766 
	C738.169861,488.135651 725.202820,466.713776 700.814026,452.709717 
M829.837280,652.708923 
	C846.694031,657.884033 863.827209,658.586914 881.185120,655.962891 
	C924.117981,649.472656 948.206787,614.951294 952.316406,575.467285 
	C938.035278,575.467285 923.748901,575.467285 909.379333,575.467285 
	C909.179077,576.507263 909.022705,577.310913 908.869629,578.115295 
	C906.492004,590.606689 901.855896,601.967285 892.333130,610.836426 
	C873.848877,628.052002 833.929260,628.086304 818.107666,592.616943 
	C809.278992,572.824646 808.531311,552.052795 811.372437,530.950012 
	C812.825745,520.156067 815.777893,509.786743 821.595276,500.497345 
	C832.532410,483.032349 848.864990,476.710632 868.854126,477.975128 
	C885.094055,479.002411 897.458374,486.106628 904.759277,500.839996 
	C907.067383,505.497772 908.208435,510.733826 909.884521,515.707947 
	C924.093384,515.707947 938.353027,515.707947 952.612793,515.707947 
	C952.359497,493.910522 939.512024,470.440460 921.294250,458.129303 
	C904.330750,446.665924 885.314880,442.321869 865.175842,442.014130 
	C822.829956,441.367126 789.535400,462.634644 775.621643,499.899719 
	C763.528381,532.288879 762.628540,565.251160 774.233276,597.907288 
	C783.705322,624.561768 801.881348,643.233948 829.837280,652.708923 
z"/>
<path fill="#47704C" opacity="1.000000" stroke="none" 
	d="
M532.468628,1025.000000 
	C533.368530,1024.666748 534.720337,1024.160156 536.108093,1024.026245 
	C553.496948,1022.347290 570.934082,1021.082397 588.274536,1019.007080 
	C622.419495,1014.920654 655.373657,1005.831604 687.638489,994.145081 
	C713.278137,984.858276 737.951904,973.539124 761.809448,960.229675 
	C784.483398,947.580627 805.943176,933.199707 826.579712,917.577881 
	C836.572815,910.013123 845.974854,901.615540 855.231384,893.143677 
	C865.650513,883.607605 876.319214,874.189392 885.598511,863.597778 
	C900.693726,846.367554 915.106323,828.503174 929.147766,810.395203 
	C945.574829,789.210754 958.889465,765.964661 970.869873,742.056030 
	C988.199402,707.472351 1001.775146,671.364258 1010.462097,633.650269 
	C1014.954346,614.147095 1018.041260,594.276917 1020.844604,574.442749 
	C1022.804688,560.574402 1023.208679,546.486145 1024.653809,532.248047 
	C1025.000000,696.260437 1025.000000,860.520813 1025.000000,1025.000000 
	C860.979187,1025.000000 696.958252,1025.000000 532.468628,1025.000000 
z"/>
<path fill="#47704C" opacity="1.000000" stroke="none" 
	d="
M0.999995,543.468628 
	C1.332893,544.035156 1.848837,545.049194 1.971385,546.108704 
	C3.976177,563.440918 5.550250,580.832581 7.982580,598.103638 
	C12.126031,627.524719 19.799002,656.138184 30.039572,683.983032 
	C35.893009,699.898926 42.697037,715.487122 49.583305,730.996338 
	C61.067863,756.861938 75.248413,781.287476 91.782829,804.204590 
	C103.342545,820.226562 115.821266,835.621643 128.492950,850.792725 
	C137.198212,861.215027 146.370667,871.390137 156.350845,880.570679 
	C170.921173,893.973572 186.113556,906.746521 201.561371,919.139038 
	C229.753998,941.755798 260.691101,960.095032 293.279602,975.596558 
	C319.805847,988.214417 347.082397,999.006592 375.682861,1005.991699 
	C394.662659,1010.627197 413.708435,1015.115417 432.907318,1018.687744 
	C445.504730,1021.031799 458.416321,1021.748474 471.209900,1022.953491 
	C478.618011,1023.651184 486.071014,1023.872192 493.751892,1024.653809 
	C329.740417,1025.000000 165.480804,1025.000000 1.000000,1025.000000 
	C1.000000,864.645813 1.000000,704.291565 0.999995,543.468628 
z"/>
<path fill="#47704C" opacity="1.000000" stroke="none" 
	d="
M1025.000000,492.531342 
	C1024.666626,491.631409 1024.154785,490.279236 1024.027466,488.891724 
	C1022.671387,474.113434 1021.612366,459.304047 1020.017212,444.552338 
	C1016.303223,410.205017 1007.877625,376.888550 996.564697,344.345673 
	C985.539917,312.631805 971.406372,282.326660 954.295532,253.341431 
	C940.258972,229.564041 924.636230,206.938141 906.997070,185.809265 
	C894.580688,170.936462 881.358093,156.610962 867.405457,143.172897 
	C839.153076,115.962440 808.115540,92.159538 774.310669,72.187790 
	C739.957642,51.892189 703.750427,35.615070 665.586426,23.799772 
	C641.678284,16.397974 617.438904,10.356885 592.619446,7.042362 
	C576.296875,4.862558 559.872070,3.447885 543.246521,1.345290 
	C703.594482,1.000000 864.188965,1.000000 1025.000000,1.000000 
	C1025.000000,164.687500 1025.000000,328.375092 1025.000000,492.531342 
z"/>
<path fill="#47704C" opacity="1.000000" stroke="none" 
	d="
M482.531342,1.000000 
	C481.465424,1.333149 479.946198,1.797016 478.393921,1.979351 
	C461.726257,3.937163 445.028046,5.655994 428.387634,7.820186 
	C401.213623,11.354335 374.941925,18.865465 348.981140,27.270756 
	C334.438721,31.979145 320.259460,37.941387 306.214081,44.025436 
	C276.748260,56.789181 248.698151,72.259537 222.550873,90.907890 
	C207.679977,101.513893 193.098251,112.637848 179.250534,124.534515 
	C165.292450,136.526016 151.567917,149.007660 139.257172,162.643356 
	C123.698509,179.876526 109.115646,198.073410 95.124405,216.618500 
	C76.685165,241.059326 61.801414,267.766083 48.866154,295.494812 
	C33.015991,329.472107 20.539040,364.649811 13.020088,401.444611 
	C9.700351,417.690094 6.657896,434.012878 4.209100,450.408081 
	C2.676142,460.671539 2.483483,471.135132 1.344716,481.754456 
	C1.000000,321.739502 1.000000,161.479019 1.000000,1.000000 
	C161.354156,1.000000 321.708435,1.000000 482.531342,1.000000 
z"/>
<path fill="#FEFEFE" opacity="1.000000" stroke="none" 
	d="
M701.154785,452.853088 
	C725.202820,466.713776 738.169861,488.135651 744.275085,514.022766 
	C751.752136,545.726562 750.704590,577.184631 737.499573,607.289185 
	C721.623657,643.482605 694.349365,659.491333 654.564758,657.160461 
	C636.813965,656.120483 620.019836,652.102966 606.572449,639.480591 
	C602.750000,635.892639 599.655640,631.529053 595.719849,626.927856 
	C595.207764,628.436096 594.329407,629.867615 594.296448,631.318298 
	C594.144958,637.978882 594.229797,644.644897 594.229797,651.654785 
	C580.591797,651.654785 567.043396,651.654785 553.148193,651.654785 
	C553.148193,558.465881 553.148193,465.230499 553.148193,371.995117 
	C552.845825,371.883179 552.543396,371.771240 552.241028,371.659271 
	C549.812988,376.026367 547.341980,380.370178 544.963257,384.763947 
	C499.807098,468.171448 454.666534,551.587402 409.503387,634.991150 
	C406.587799,640.375427 404.736023,647.750366 400.174469,650.432739 
	C395.568512,653.141296 388.203430,651.219727 382.047119,651.220520 
	C281.567017,651.233521 181.086899,651.229736 80.606796,651.229736 
	C78.664856,651.229736 76.722916,651.229736 73.941620,651.229736 
	C78.829094,642.122864 83.312027,633.701050 87.856804,625.312744 
	C113.209251,578.519775 138.571411,531.732117 163.940689,484.948273 
	C184.173203,447.637238 204.449295,410.349731 224.593506,372.991119 
	C225.861053,370.640381 227.078217,369.700592 229.823792,369.702759 
	C336.969177,369.786316 444.114624,369.778931 551.260071,369.781921 
	C564.584656,369.782288 577.909241,369.774261 591.233826,369.770294 
	C592.861023,369.769806 594.488159,369.770233 596.682495,369.770233 
	C596.682495,404.072571 596.682495,437.939301 596.682495,471.934082 
	C597.733032,471.849487 598.449402,471.999268 598.644226,471.746704 
	C620.291321,443.686462 648.891113,437.180878 681.910645,445.276459 
	C688.427490,446.874268 694.523804,450.187561 701.154785,452.853088 
M704.761108,559.045044 
	C705.674866,545.150208 704.303345,531.550903 700.089783,518.207947 
	C691.505798,491.025635 673.813049,477.685364 645.619995,478.075897 
	C630.600037,478.283997 618.461731,484.872986 609.420105,496.871155 
	C600.191345,509.117676 596.787354,523.413574 595.500977,538.333984 
	C593.770447,558.406799 595.947388,577.833191 605.924622,595.784668 
	C624.499146,629.204590 671.446838,631.271423 692.399841,599.504700 
	C700.266663,587.577881 703.418274,574.026917 704.761108,559.045044 
z"/>
<path fill="#FDFDFD" opacity="1.000000" stroke="none" 
	d="
M829.471924,652.555420 
	C801.881348,643.233948 783.705322,624.561768 774.233276,597.907288 
	C762.628540,565.251160 763.528381,532.288879 775.621643,499.899719 
	C789.535400,462.634644 822.829956,441.367126 865.175842,442.014130 
	C885.314880,442.321869 904.330750,446.665924 921.294250,458.129303 
	C939.512024,470.440460 952.359497,493.910522 952.612793,515.707947 
	C938.353027,515.707947 924.093384,515.707947 909.884521,515.707947 
	C908.208435,510.733826 907.067383,505.497772 904.759277,500.839996 
	C897.458374,486.106628 885.094055,479.002411 868.854126,477.975128 
	C848.864990,476.710632 832.532410,483.032349 821.595276,500.497345 
	C815.777893,509.786743 812.825745,520.156067 811.372437,530.950012 
	C808.531311,552.052795 809.278992,572.824646 818.107666,592.616943 
	C833.929260,628.086304 873.848877,628.052002 892.333130,610.836426 
	C901.855896,601.967285 906.492004,590.606689 908.869629,578.115295 
	C909.022705,577.310913 909.179077,576.507263 909.379333,575.467285 
	C923.748901,575.467285 938.035278,575.467285 952.316406,575.467285 
	C948.206787,614.951294 924.117981,649.472656 881.185120,655.962891 
	C863.827209,658.586914 846.694031,657.884033 829.471924,652.555420 
z"/>
<path fill="#010101" opacity="1.000000" stroke="none" 
	d="
M704.706299,559.503174 
	C703.418274,574.026917 700.266663,587.577881 692.399841,599.504700 
	C671.446838,631.271423 624.499146,629.204590 605.924622,595.784668 
	C595.947388,577.833191 593.770447,558.406799 595.500977,538.333984 
	C596.787354,523.413574 600.191345,509.117676 609.420105,496.871155 
	C618.461731,484.872986 630.600037,478.283997 645.619995,478.075897 
	C673.813049,477.685364 691.505798,491.025635 700.089783,518.207947 
	C704.303345,531.550903 705.674866,545.150208 704.706299,559.503174 
z"/>
</svg>