<svg version="1.1" id="Layer_1" xmlns="http://www.w3.org/2000/svg" xmlns:xlink="http://www.w3.org/1999/xlink" x="0px" y="0px"
	 width="100%" viewBox="0 0 300 300" enable-background="new 0 0 300 300" xml:space="preserve">
<path fill="#000000" opacity="1.000000" stroke="none" 
	d="
M301.000000,126.000000 
	C301.000000,142.687561 301.000000,159.375122 300.661041,176.691818 
	C299.580688,179.280807 298.572632,181.183411 298.137634,183.209061 
	C290.864380,217.076309 273.590363,244.959610 247.213776,267.113220 
	C228.325790,282.977203 206.426498,293.116791 182.430649,298.703552 
	C178.331100,299.658020 174.145721,300.243866 170.000000,301.000000 
	C157.645767,301.000000 145.291550,301.000000 132.222473,300.676270 
	C127.129051,299.634705 122.694992,299.157166 118.380814,298.160583 
	C87.112503,290.937927 60.568020,275.728638 39.079479,251.668884 
	C21.318480,231.782669 9.277451,209.118820 3.809078,182.974594 
	C3.303940,180.559525 1.956386,178.320679 0.999997,176.000000 
	C1.000000,159.645767 1.000000,143.291550 1.342749,126.303711 
	C2.640993,122.072754 3.604524,118.477524 4.550729,114.877731 
	C13.261133,81.739471 30.601566,54.201637 57.589767,32.866264 
	C76.836433,17.650923 98.426056,7.607418 122.533867,2.990132 
	C125.700157,2.383706 128.845154,1.666108 132.000000,1.000000 
	C144.354233,1.000000 156.708450,1.000000 169.776306,1.323181 
	C177.137268,2.851870 183.941849,3.507743 190.405167,5.356549 
	C220.937729,14.090231 246.879562,30.312393 267.138947,54.847088 
	C282.707367,73.700935 293.479431,95.108429 298.279083,119.307281 
	C298.739166,121.626831 300.072205,123.773224 301.000000,126.000000 
M113.735504,81.005188 
	C106.836700,81.672707 99.885025,82.005234 93.051140,83.083984 
	C82.004646,84.827721 70.961014,86.731384 60.056667,89.190483 
	C50.758488,91.287384 48.491913,99.966576 50.360882,107.120064 
	C51.903107,113.022957 57.448341,117.869316 67.451889,115.356773 
	C86.907166,110.470276 106.783089,108.342300 126.792435,108.130692 
	C136.348572,108.029640 145.921524,109.288017 155.483109,109.982346 
	C172.683273,111.231354 189.421585,115.021286 205.671158,120.508469 
	C218.147675,124.721550 230.107254,130.441589 242.443832,135.102036 
	C249.797562,137.880066 256.148590,134.707901 258.957428,127.644829 
	C261.809723,120.472504 259.556396,113.748413 252.790436,110.436943 
	C245.971191,107.099388 239.039154,103.966675 232.031006,101.045349 
	C207.502243,90.820602 181.863098,84.734001 155.501083,82.194321 
	C141.985886,80.892281 128.301849,81.343033 113.735504,81.005188 
M151.228561,142.015167 
	C146.275574,141.676956 141.319641,141.023651 136.370224,141.069794 
	C127.581841,141.151688 118.733070,141.103683 110.026253,142.114853 
	C96.618645,143.671936 83.245468,145.737823 69.981316,148.242599 
	C61.235306,149.894180 56.681145,158.395554 58.902752,167.106552 
	C60.360962,172.824249 65.253235,176.122864 70.986282,175.095276 
	C76.824593,174.048813 82.667503,172.994003 88.454559,171.701721 
	C109.902031,166.912415 131.633667,166.760391 153.228256,169.250504 
	C176.294281,171.910309 198.529083,178.450058 219.215271,189.206863 
	C229.285675,194.443451 233.781830,191.906631 238.076508,182.853760 
	C241.553970,175.523468 239.954254,170.109055 232.758591,166.368820 
	C217.155762,158.258621 200.774063,152.120117 183.693100,148.066818 
	C173.287964,145.597687 162.670456,144.023468 151.228561,142.015167 
M170.211517,202.153976 
	C157.642029,200.436203 145.117188,197.864517 132.492401,197.204697 
	C114.428345,196.260559 96.595444,198.950974 79.109947,203.816681 
	C69.096413,206.603119 65.750298,211.215683 66.964973,221.616241 
	C67.600876,227.061035 72.582169,230.639984 77.802101,229.607559 
	C89.416977,227.310318 100.997459,224.752441 112.694771,222.978775 
	C130.942245,220.211914 148.933487,222.578049 166.747849,226.840240 
	C180.477661,230.125183 193.340897,235.540314 205.981644,241.749908 
	C208.815063,243.141769 213.583496,243.257889 216.261093,241.782928 
	C223.125397,238.001648 222.147400,223.466064 215.183899,219.638474 
	C201.216721,211.961182 186.542435,206.069733 170.211517,202.153976 
z"/>
<path fill="#47704C" opacity="1.000000" stroke="none" 
	d="
M131.531342,1.000000 
	C128.845154,1.666108 125.700157,2.383706 122.533867,2.990132 
	C98.426056,7.607418 76.836433,17.650923 57.589767,32.866264 
	C30.601566,54.201637 13.261133,81.739471 4.550729,114.877731 
	C3.604524,118.477524 2.640993,122.072754 1.342749,125.835052 
	C1.000000,84.404648 1.000000,42.809296 1.000000,1.000000 
	C44.353992,1.000000 87.708336,1.000000 131.531342,1.000000 
z"/>
<path fill="#47704C" opacity="1.000000" stroke="none" 
	d="
M301.000000,125.531342 
	C300.072205,123.773224 298.739166,121.626831 298.279083,119.307281 
	C293.479431,95.108429 282.707367,73.700935 267.138947,54.847088 
	C246.879562,30.312393 220.937729,14.090231 190.405167,5.356549 
	C183.941849,3.507743 177.137268,2.851870 170.244965,1.323181 
	C213.591934,1.000000 257.183868,1.000000 301.000000,1.000000 
	C301.000000,42.353958 301.000000,83.708321 301.000000,125.531342 
z"/>
<path fill="#47704C" opacity="1.000000" stroke="none" 
	d="
M0.999997,176.468658 
	C1.956386,178.320679 3.303940,180.559525 3.809078,182.974594 
	C9.277451,209.118820 21.318480,231.782669 39.079479,251.668884 
	C60.568020,275.728638 87.112503,290.937927 118.380814,298.160583 
	C122.694992,299.157166 127.129051,299.634705 131.753815,300.676270 
	C88.408073,301.000000 44.816147,301.000000 1.000000,301.000000 
	C1.000000,259.646057 1.000000,218.291687 0.999997,176.468658 
z"/>
<path fill="#47704C" opacity="1.000000" stroke="none" 
	d="
M170.468658,301.000000 
	C174.145721,300.243866 178.331100,299.658020 182.430649,298.703552 
	C206.426498,293.116791 228.325790,282.977203 247.213776,267.113220 
	C273.590363,244.959610 290.864380,217.076309 298.137634,183.209061 
	C298.572632,181.183411 299.580688,179.280807 300.661041,177.160477 
	C301.000000,218.262314 301.000000,259.524628 301.000000,301.000000 
	C257.645996,301.000000 214.291656,301.000000 170.468658,301.000000 
z"/>
<path fill="#47704C" opacity="1.000000" stroke="none" 
	d="
M114.214806,81.003418 
	C128.301849,81.343033 141.985886,80.892281 155.501083,82.194321 
	C181.863098,84.734001 207.502243,90.820602 232.031006,101.045349 
	C239.039154,103.966675 245.971191,107.099388 252.790436,110.436943 
	C259.556396,113.748413 261.809723,120.472504 258.957428,127.644829 
	C256.148590,134.707901 249.797562,137.880066 242.443832,135.102036 
	C230.107254,130.441589 218.147675,124.721550 205.671158,120.508469 
	C189.421585,115.021286 172.683273,111.231354 155.483109,109.982346 
	C145.921524,109.288017 136.348572,108.029640 126.792435,108.130692 
	C106.783089,108.342300 86.907166,110.470276 67.451889,115.356773 
	C57.448341,117.869316 51.903107,113.022957 50.360882,107.120064 
	C48.491913,99.966576 50.758488,91.287384 60.056667,89.190483 
	C70.961014,86.731384 82.004646,84.827721 93.051140,83.083984 
	C99.885025,82.005234 106.836700,81.672707 114.214806,81.003418 
z"/>
<path fill="#47704C" opacity="1.000000" stroke="none" 
	d="
M151.688446,142.031219 
	C162.670456,144.023468 173.287964,145.597687 183.693100,148.066818 
	C200.774063,152.120117 217.155762,158.258621 232.758591,166.368820 
	C239.954254,170.109055 241.553970,175.523468 238.076508,182.853760 
	C233.781830,191.906631 229.285675,194.443451 219.215271,189.206863 
	C198.529083,178.450058 176.294281,171.910309 153.228256,169.250504 
	C131.633667,166.760391 109.902031,166.912415 88.454559,171.701721 
	C82.667503,172.994003 76.824593,174.048813 70.986282,175.095276 
	C65.253235,176.122864 60.360962,172.824249 58.902752,167.106552 
	C56.681145,158.395554 61.235306,149.894180 69.981316,148.242599 
	C83.245468,145.737823 96.618645,143.671936 110.026253,142.114853 
	C118.733070,141.103683 127.581841,141.151688 136.370224,141.069794 
	C141.319641,141.023651 146.275574,141.676956 151.688446,142.031219 
z"/>
<path fill="#47704C" opacity="1.000000" stroke="none" 
	d="
M170.595505,202.320618 
	C186.542435,206.069733 201.216721,211.961182 215.183899,219.638474 
	C222.147400,223.466064 223.125397,238.001648 216.261093,241.782928 
	C213.583496,243.257889 208.815063,243.141769 205.981644,241.749908 
	C193.340897,235.540314 180.477661,230.125183 166.747849,226.840240 
	C148.933487,222.578049 130.942245,220.211914 112.694771,222.978775 
	C100.997459,224.752441 89.416977,227.310318 77.802101,229.607559 
	C72.582169,230.639984 67.600876,227.061035 66.964973,221.616241 
	C65.750298,211.215683 69.096413,206.603119 79.109947,203.816681 
	C96.595444,198.950974 114.428345,196.260559 132.492401,197.204697 
	C145.117188,197.864517 157.642029,200.436203 170.595505,202.320618 
z"/>
</svg>