<?xml version="1.0" encoding="UTF-8"?><svg id="Ebene_1" xmlns="http://www.w3.org/2000/svg" viewBox="0 0 558 36.72"><defs><style>.cls-1{fill:#1d1d1b;stroke-width:0px;}</style></defs><path class="cls-1" d="m0,7.68h18.76v4.56H5.04v6.96h13v4.56H5.04v7.68h14.44v4.56H0V7.68Z"/><path class="cls-1" d="m26.84,7.68h9.84c5.44,0,10.56,1.76,10.56,8.12,0,4.08-2.36,7.08-6.56,7.68l7.52,12.52h-6.08l-6.56-12h-3.68v12h-5.04V7.68Zm8.96,12c2.84,0,6.16-.24,6.16-3.92,0-3.36-3.12-3.76-5.72-3.76h-4.36v7.68h3.92Z"/><path class="cls-1" d="m54.44,7.68h6.68l13.72,21.04.08.08h-.08l.08-.08V7.68h5.04v28.32h-6.4l-14-21.72h-.08v21.72h-5.04V7.68Z"/><path class="cls-1" d="m102.56,13.76c-1.08-1.52-3-2.24-4.96-2.24-2.32,0-4.64,1.04-4.64,3.64,0,5.68,13.44,2.44,13.44,12.52,0,6.08-4.8,9.04-10.36,9.04-3.52,0-6.96-1.08-9.28-3.84l3.8-3.68c1.24,1.88,3.36,2.96,5.6,2.96s4.96-1.28,4.96-3.88c0-6.2-13.44-2.64-13.44-12.76,0-5.84,5.2-8.56,10.44-8.56,2.96,0,5.92.84,8.12,2.92l-3.68,3.88Z"/><path class="cls-1" d="m119.84,12.24h-8.68v-4.56h22.4v4.56h-8.68v23.76h-5.04V12.24Z"/><path class="cls-1" d="m178.8,33.92c-3.44,1.84-7.36,2.8-11.72,2.8-8.72,0-14.96-5.92-14.96-14.76s6.24-15,14.96-15c4.32,0,8.2.92,11.16,3.56l-3.72,3.76c-1.8-1.76-4.56-2.76-7.4-2.76-5.84,0-9.72,4.48-9.72,10.12,0,6.04,3.88,10.52,9.72,10.52,2.56,0,4.88-.48,6.64-1.48v-6.68h-5.8v-4.56h10.84v14.48Z"/><path class="cls-1" d="m200.6,6.96c8.84-.16,15.08,5.76,15.08,14.84s-6.24,14.76-15.08,14.92c-8.72,0-14.96-5.92-14.96-14.76s6.24-15,14.96-15Zm.04,25.2c5.88,0,9.76-4.48,9.76-10.52,0-5.64-3.88-10.12-9.76-10.12s-9.72,4.48-9.72,10.12c0,6.04,3.88,10.52,9.72,10.52ZM196.52,0c1.76,0,3.12,1.24,3.12,2.88s-1.36,2.88-3.12,2.88-3.04-1.36-3.04-2.88,1.28-2.88,3.04-2.88Zm8.24,0c1.76,0,3.12,1.24,3.12,2.88s-1.36,2.88-3.12,2.88-3.04-1.36-3.04-2.88,1.28-2.88,3.04-2.88Z"/><path class="cls-1" d="m222.88,7.68h5.04v11.28h13.24V7.68h5.04v28.32h-5.04v-12.48h-13.24v12.48h-5.04V7.68Z"/><path class="cls-1" d="m254.92,7.68h6.68l13.72,21.04.08.08h-.08l.08-.08V7.68h5.04v28.32h-6.4l-14-21.72h-.08v21.72h-5.04V7.68Z"/><path class="cls-1" d="m289.16,7.68h18.76v4.56h-13.72v6.96h13v4.56h-13v7.68h14.44v4.56h-19.48V7.68Z"/><path class="cls-1" d="m316,7.68h9.84c5.44,0,10.56,1.76,10.56,8.12,0,4.08-2.36,7.08-6.56,7.68l7.52,12.52h-6.08l-6.56-12h-3.68v12h-5.04V7.68Zm8.96,12c2.84,0,6.16-.24,6.16-3.92,0-3.36-3.12-3.76-5.72-3.76h-4.36v7.68h3.92Z"/><path class="cls-1" d="m359.32,30.76c1.4,2.36,3.68,3.56,6.48,3.56,3.56,0,6.36-2.16,6.36-5.56,0-7.92-14.6-3.28-14.6-14.04,0-5.04,4.32-7.76,9.08-7.76,3.08,0,5.8,1.04,7.72,3.56l-2.28,1.64c-1.32-1.84-3.08-2.8-5.52-2.8-3.4,0-6.36,1.76-6.36,5.36,0,8.52,14.6,3.4,14.6,14.04,0,5.12-4.2,7.96-8.8,7.96-3.72,0-7-1.2-9.2-4.28l2.52-1.68Z"/><path class="cls-1" d="m389.48,10.08h-9.68v-2.4h22v2.4h-9.68v25.92h-2.64V10.08Z"/><path class="cls-1" d="m408.56,7.68h2.64v28.32h-2.64V7.68Z"/><path class="cls-1" d="m421.36,7.68h16.96v2.4h-14.32v10.08h13.32v2.4h-13.32v13.44h-2.64V7.68Z"/><path class="cls-1" d="m452.28,10.08h-9.68v-2.4h22v2.4h-9.68v25.92h-2.64V10.08Z"/><path class="cls-1" d="m491.48,25.16c0,6.04-2.6,11.56-10.32,11.56s-10.32-5.52-10.32-11.56V7.68h2.64v16.8c0,4.04,1.08,9.84,7.68,9.84s7.68-5.8,7.68-9.84V7.68h2.64v17.48Z"/><path class="cls-1" d="m501.12,7.68h3.4l17.24,24.8h.08V7.68h2.64v28.32h-3.4l-17.24-24.8h-.08v24.8h-2.64V7.68Z"/><path class="cls-1" d="m558,34.16c-3.28,1.88-6.88,2.56-10.56,2.56-8.64,0-14.64-6.24-14.64-14.88s6-14.88,14.64-14.88c4.2,0,7.6,1.28,10.2,3.92l-1.92,2c-1.72-2.08-5.2-3.52-8.28-3.52-7.4,0-12,5.44-12,12.48s4.6,12.48,12,12.48c3.04,0,5.76-.4,7.92-1.68v-9.52h-6.8v-2.4h9.44v13.44Z"/></svg>