<?xml version="1.0" encoding="utf-8"?>
<!-- Generator: Adobe Illustrator 25.4.1, SVG Export Plug-In . SVG Version: 6.00 Build 0)  -->
<svg version="1.1" id="Layer_1" xmlns="http://www.w3.org/2000/svg" xmlns:xlink="http://www.w3.org/1999/xlink" x="0px" y="0px"
	 width="251px" height="22px" viewBox="0 0 251 22" style="enable-background:new 0 0 251 22;" xml:space="preserve">
<style type="text/css">
	.st0{fill-rule:evenodd;clip-rule:evenodd;fill:#1D1D1B;}
	.st1{filter:url(#Adobe_OpacityMaskFilter);}
	.st2{fill-rule:evenodd;clip-rule:evenodd;fill:#FFFFFF;}
	.st3{mask:url(#mask-2_00000151504662002109982040000012902252085861651329_);fill-rule:evenodd;clip-rule:evenodd;fill:#1D1D1B;}
	.st4{filter:url(#Adobe_OpacityMaskFilter_00000183244269312508827560000012058670935340558999_);}
	.st5{mask:url(#mask-4_00000097475285792277537130000000540340399412198557_);fill-rule:evenodd;clip-rule:evenodd;fill:#1D1D1B;}
	.st6{filter:url(#Adobe_OpacityMaskFilter_00000082339875268859026600000012409451396037619098_);}
	.st7{mask:url(#mask-6_00000132806235831219806550000013974619497133183656_);fill-rule:evenodd;clip-rule:evenodd;fill:#1D1D1B;}
	.st8{filter:url(#Adobe_OpacityMaskFilter_00000003079925859589425280000015099224494855374510_);}
	.st9{mask:url(#mask-6_00000027606240841593228860000008704204219881358978_);fill-rule:evenodd;clip-rule:evenodd;fill:#1D1D1B;}
	.st10{filter:url(#Adobe_OpacityMaskFilter_00000037654893412835374810000002778477616715437698_);}
	.st11{mask:url(#mask-6_00000130607720924777071100000013095939754430792601_);fill-rule:evenodd;clip-rule:evenodd;fill:#1D1D1B;}
	.st12{filter:url(#Adobe_OpacityMaskFilter_00000001657346939944292080000012767941942722934939_);}
	.st13{mask:url(#mask-6_00000086684854479937299390000000800325443101736111_);fill-rule:evenodd;clip-rule:evenodd;fill:#1D1D1B;}
	.st14{filter:url(#Adobe_OpacityMaskFilter_00000130635972022155209750000000156185096892671893_);}
	.st15{mask:url(#mask-6_00000112607299460046079100000018060044844020788390_);fill-rule:evenodd;clip-rule:evenodd;fill:#1D1D1B;}
	.st16{filter:url(#Adobe_OpacityMaskFilter_00000124876364121546200390000001280090223270633393_);}
	.st17{mask:url(#mask-6_00000124147213749944939590000018037070811454418063_);fill-rule:evenodd;clip-rule:evenodd;fill:#1D1D1B;}
	.st18{filter:url(#Adobe_OpacityMaskFilter_00000096770272585479709960000000330802859823844270_);}
	.st19{mask:url(#mask-6_00000137123934721058726400000000362466886150103944_);fill-rule:evenodd;clip-rule:evenodd;fill:#1D1D1B;}
	.st20{filter:url(#Adobe_OpacityMaskFilter_00000025429270535624547790000007991986923477919381_);}
	.st21{mask:url(#mask-6_00000007411669828080091420000009025581683931308715_);fill-rule:evenodd;clip-rule:evenodd;fill:#1D1D1B;}
	.st22{filter:url(#Adobe_OpacityMaskFilter_00000054967940693565760550000016294619312539803786_);}
	.st23{mask:url(#mask-6_00000095297222513897392730000012193821186044121999_);fill-rule:evenodd;clip-rule:evenodd;fill:#1D1D1B;}
</style>
<g id="logo-lanz-architekten" transform="translate(245.000000, 112.000000)">
	<polygon id="Fill-1" class="st0" points="-245,-110.4 -245,-90.5 -234.7,-90.5 -234.7,-93.9 -241.2,-93.9 -241.2,-110.4 	"/>
	<g id="Group-28">
		<g id="Group-4" transform="translate(11.705928, 6.541512)">
			<g id="Clip-3">
			</g>
			<defs>
				<filter id="Adobe_OpacityMaskFilter" filterUnits="userSpaceOnUse" x="-245" y="-112" width="12.3" height="15.3">
					<feColorMatrix  type="matrix" values="1 0 0 0 0  0 1 0 0 0  0 0 1 0 0  0 0 0 1 0"/>
				</filter>
			</defs>
			
				<mask maskUnits="userSpaceOnUse" x="-245" y="-112" width="12.3" height="15.3" id="mask-2_00000151504662002109982040000012902252085861651329_">
				<g class="st1">
					<polygon id="path-1_00000080922974624244581820000007205421273769386645_" class="st2" points="-245,-112 -232.7,-112 
						-232.7,-96.7 -245,-96.7 					"/>
				</g>
			</mask>
			<path id="Fill-2" class="st3" d="M-236.5-103.5c-3.8,0-4.8,0.9-4.8,2.2c0,0.9,0.7,1.7,1.8,1.7c1.8,0,3.1-1.8,3.1-3.5V-103.5z
				 M-236.2-97c0-0.9,0-1.7,0.1-2.5l0,0c-0.7,1.7-2.5,2.8-4.7,2.8c-2.7,0-4.2-1.8-4.2-4.2c0-3.5,3.3-5.1,8.5-5.1v-0.5
				c0-1.8-0.7-2.6-2.6-2.6c-1.3,0-3.1,0.4-4.4,1l-0.6-2.9c1.5-0.6,3.6-1,5.5-1c4.5,0,5.9,1.9,5.9,5.2v6c0,1.2,0,2.6,0.1,3.8H-236.2z
				"/>
		</g>
		<path id="Fill-5" class="st0" d="M-207.9-90.5v-9.4c0-1.5-0.4-2.4-1.8-2.4c-1.9,0-3.4,2.1-3.4,4.7v7.1h-3.8v-14.6h3.6
			c0,0.7-0.1,1.9-0.2,2.6h0c0.9-1.7,2.6-2.9,5-2.9c3.3,0,4.4,2.1,4.4,4.7v10.3H-207.9z"/>
		<path id="Fill-7" class="st0" d="M-200.8-90.5v-2.7l5.9-8.6c-0.6,0-1.7,0.1-3.1,0.1h-2.6v-3.4h10.3v2.7l-5.8,8.5
			c0.6,0,2.2,0,3.3,0h2.6v3.4H-200.8z"/>
		<path id="Fill-9" class="st0" d="M-172-105.7c-0.4-1-0.6-1.8-0.9-2.7h0c-0.3,0.8-0.6,1.7-0.9,2.6l-3.2,8.6h8.1L-172-105.7z
			 M-166.5-90.5l-1.8-5.1h-9.2l-1.9,5.1h-2l7.5-19.9h2l7.5,19.9H-166.5z"/>
		<path id="Fill-11" class="st0" d="M-154.5-103.5c-3.3-0.5-4.9,2.1-4.9,7.2v5.8h-1.9v-14.6h1.9c0,1-0.1,2.5-0.4,3.8l0.1,0
			c0.6-2.2,2.1-4.5,5.3-4.1L-154.5-103.5z"/>
		<path id="Fill-13" class="st0" d="M-146.7-90.3c-3.1,0-6.3-1.3-6.3-7c0-4.9,2.4-8,6.9-8c1.5,0,2.8,0.2,3.9,0.7l-0.4,1.5
			c-1-0.4-2.4-0.7-3.8-0.7c-2.9,0-4.6,2.6-4.6,6.2c0,3.2,0.9,5.8,4.7,5.8c1.4,0,2.7-0.3,3.8-0.8l0.4,1.5
			C-143.4-90.6-145.1-90.3-146.7-90.3"/>
		<g id="Group-17" transform="translate(106.283291, 0.000000)">
			<g id="Clip-16">
			</g>
			<defs>
				
					<filter id="Adobe_OpacityMaskFilter_00000121960989861986480650000006084490235861754019_" filterUnits="userSpaceOnUse" x="-245" y="-112" width="11.4" height="21.5">
					<feColorMatrix  type="matrix" values="1 0 0 0 0  0 1 0 0 0  0 0 1 0 0  0 0 0 1 0"/>
				</filter>
			</defs>
			
				<mask maskUnits="userSpaceOnUse" x="-245" y="-112" width="11.4" height="21.5" id="mask-4_00000097475285792277537130000000540340399412198557_">
				<g style="filter:url(#Adobe_OpacityMaskFilter_00000121960989861986480650000006084490235861754019_);">
					<polygon id="path-3_00000080165739083480736880000001598279581111801254_" class="st2" points="-245,-112 -233.6,-112 
						-233.6,-90.5 -245,-90.5 					"/>
				</g>
			</mask>
			<path id="Fill-15" class="st5" d="M-235.5-90.5v-9.5c0-2.4-0.7-3.9-3-3.9c-2.8,0-4.7,2.7-4.7,6.4v7h-1.9V-112h1.9v7.4
				c0,1-0.1,2.2-0.2,2.9l0.1,0c0.9-2.3,2.7-3.7,5.3-3.7c3.4,0,4.4,2.1,4.4,4.7v10.2H-235.5z"/>
		</g>
		<g id="Clip-19">
		</g>
		<defs>
			
				<filter id="Adobe_OpacityMaskFilter_00000093151932239931642540000003359620056695085463_" filterUnits="userSpaceOnUse" x="-122.3" y="-111.2" width="2.7" height="20.7">
				<feColorMatrix  type="matrix" values="1 0 0 0 0  0 1 0 0 0  0 0 1 0 0  0 0 0 1 0"/>
			</filter>
		</defs>
		
			<mask maskUnits="userSpaceOnUse" x="-122.3" y="-111.2" width="2.7" height="20.7" id="mask-6_00000132806235831219806550000013974619497133183656_">
			<g style="filter:url(#Adobe_OpacityMaskFilter_00000093151932239931642540000003359620056695085463_);">
				<polygon id="path-5_00000067928753338397414250000012146083671627322556_" class="st2" points="-245,-90.2 5,-90.2 5,-112 
					-245,-112 				"/>
			</g>
		</mask>
		<path id="Fill-18" class="st7" d="M-121.9-90.5h1.9v-14.6h-1.9V-90.5z M-121-108.6c-0.7,0-1.3-0.6-1.3-1.3c0-0.7,0.6-1.3,1.3-1.3
			c0.7,0,1.3,0.6,1.3,1.3C-119.7-109.2-120.3-108.6-121-108.6L-121-108.6z"/>
		<defs>
			
				<filter id="Adobe_OpacityMaskFilter_00000080902732034188565110000011192306629535729800_" filterUnits="userSpaceOnUse" x="-117.5" y="-110.6" width="9.8" height="20.3">
				<feColorMatrix  type="matrix" values="1 0 0 0 0  0 1 0 0 0  0 0 1 0 0  0 0 0 1 0"/>
			</filter>
		</defs>
		
			<mask maskUnits="userSpaceOnUse" x="-117.5" y="-110.6" width="9.8" height="20.3" id="mask-6_00000027606240841593228860000008704204219881358978_">
			<g style="filter:url(#Adobe_OpacityMaskFilter_00000080902732034188565110000011192306629535729800_);">
				<polygon id="path-5_00000165944195513973362500000013583595062680655770_" class="st2" points="-245,-90.2 5,-90.2 5,-112 
					-245,-112 				"/>
			</g>
		</mask>
		<path id="Fill-20" class="st9" d="M-110.5-90.3c-2.9,0-3.7-1.3-3.7-4.2v-9.1h-3.4v-1.5h3.4v-5l1.8-0.5v5.5h4.5v1.5h-4.5v8.2
			c0,2.8,0.5,3.5,2.3,3.5c0.8,0,1.5-0.1,2-0.2l0.3,1.6C-108.5-90.4-109.6-90.3-110.5-90.3"/>
		<defs>
			
				<filter id="Adobe_OpacityMaskFilter_00000136397075976002794390000010328545757920506028_" filterUnits="userSpaceOnUse" x="-105.5" y="-105.4" width="12" height="15.1">
				<feColorMatrix  type="matrix" values="1 0 0 0 0  0 1 0 0 0  0 0 1 0 0  0 0 0 1 0"/>
			</filter>
		</defs>
		
			<mask maskUnits="userSpaceOnUse" x="-105.5" y="-105.4" width="12" height="15.1" id="mask-6_00000130607720924777071100000013095939754430792601_">
			<g style="filter:url(#Adobe_OpacityMaskFilter_00000136397075976002794390000010328545757920506028_);">
				<polygon id="path-5_00000045609725661078382140000013465733119101617039_" class="st2" points="-245,-90.2 5,-90.2 5,-112 
					-245,-112 				"/>
			</g>
		</mask>
		<path id="Fill-21" class="st11" d="M-99.3-103.9c-2.2,0-3.7,1.6-4.1,4.1h7.9C-95.5-102.2-96.9-103.9-99.3-103.9 M-93.6-98.4h-9.9
			c-0.2,4.7,1.6,6.5,5,6.5c1.4,0,2.9-0.3,4.1-0.9l0.4,1.6c-1.4,0.6-3.1,0.9-4.9,0.9c-4.3,0-6.6-2.4-6.6-7.5c0-4.4,2.4-7.6,6.3-7.6
			c4,0,5.6,2.7,5.6,5.9C-93.6-99.3-93.6-98.9-93.6-98.4"/>
		<defs>
			
				<filter id="Adobe_OpacityMaskFilter_00000142869402702588184310000017705628056120742546_" filterUnits="userSpaceOnUse" x="-89.5" y="-112" width="10.4" height="21.5">
				<feColorMatrix  type="matrix" values="1 0 0 0 0  0 1 0 0 0  0 0 1 0 0  0 0 0 1 0"/>
			</filter>
		</defs>
		
			<mask maskUnits="userSpaceOnUse" x="-89.5" y="-112" width="10.4" height="21.5" id="mask-6_00000086684854479937299390000000800325443101736111_">
			<g style="filter:url(#Adobe_OpacityMaskFilter_00000142869402702588184310000017705628056120742546_);">
				<polygon id="path-5_00000021834686089007162920000003316216952475587512_" class="st2" points="-245,-90.2 5,-90.2 5,-112 
					-245,-112 				"/>
			</g>
		</mask>
		<polygon id="Fill-22" class="st13" points="-81.6,-90.5 -87.7,-98.3 -87.7,-90.5 -89.5,-90.5 -89.5,-112 -87.7,-112 -87.7,-98.5 
			-81.9,-105.1 -79.6,-105.1 -85.6,-98.5 -79.1,-90.5 		"/>
		<defs>
			
				<filter id="Adobe_OpacityMaskFilter_00000053519173117093607340000006506850215034884531_" filterUnits="userSpaceOnUse" x="-78.6" y="-110.6" width="9.8" height="20.3">
				<feColorMatrix  type="matrix" values="1 0 0 0 0  0 1 0 0 0  0 0 1 0 0  0 0 0 1 0"/>
			</filter>
		</defs>
		
			<mask maskUnits="userSpaceOnUse" x="-78.6" y="-110.6" width="9.8" height="20.3" id="mask-6_00000112607299460046079100000018060044844020788390_">
			<g style="filter:url(#Adobe_OpacityMaskFilter_00000053519173117093607340000006506850215034884531_);">
				<polygon id="path-5_00000165229457779965895530000011273281226248564903_" class="st2" points="-245,-90.2 5,-90.2 5,-112 
					-245,-112 				"/>
			</g>
		</mask>
		<path id="Fill-23" class="st15" d="M-71.6-90.3c-2.9,0-3.7-1.3-3.7-4.2v-9.1h-3.4v-1.5h3.4v-5l1.8-0.5v5.5h4.5v1.5h-4.5v8.2
			c0,2.8,0.5,3.5,2.3,3.5c0.8,0,1.5-0.1,2-0.2l0.3,1.6C-69.6-90.4-70.7-90.3-71.6-90.3"/>
		<defs>
			
				<filter id="Adobe_OpacityMaskFilter_00000006685275673036570630000006724059177341794975_" filterUnits="userSpaceOnUse" x="-66.7" y="-105.4" width="12" height="15.1">
				<feColorMatrix  type="matrix" values="1 0 0 0 0  0 1 0 0 0  0 0 1 0 0  0 0 0 1 0"/>
			</filter>
		</defs>
		
			<mask maskUnits="userSpaceOnUse" x="-66.7" y="-105.4" width="12" height="15.1" id="mask-6_00000124147213749944939590000018037070811454418063_">
			<g style="filter:url(#Adobe_OpacityMaskFilter_00000006685275673036570630000006724059177341794975_);">
				<polygon id="path-5_00000170976502341436201400000009942846853291325629_" class="st2" points="-245,-90.2 5,-90.2 5,-112 
					-245,-112 				"/>
			</g>
		</mask>
		<path id="Fill-24" class="st17" d="M-60.5-103.9c-2.2,0-3.7,1.6-4.1,4.1h7.9C-56.6-102.2-58.1-103.9-60.5-103.9 M-54.8-98.4h-9.9
			c-0.2,4.7,1.6,6.5,5,6.5c1.4,0,2.9-0.3,4.1-0.9l0.4,1.6c-1.4,0.6-3.1,0.9-4.9,0.9c-4.3,0-6.6-2.4-6.6-7.5c0-4.4,2.4-7.6,6.3-7.6
			c4,0,5.6,2.7,5.6,5.9C-54.7-99.3-54.7-98.9-54.8-98.4"/>
		<defs>
			
				<filter id="Adobe_OpacityMaskFilter_00000004532825106381384330000013688023954664986045_" filterUnits="userSpaceOnUse" x="-50.7" y="-105.4" width="11.4" height="14.9">
				<feColorMatrix  type="matrix" values="1 0 0 0 0  0 1 0 0 0  0 0 1 0 0  0 0 0 1 0"/>
			</filter>
		</defs>
		
			<mask maskUnits="userSpaceOnUse" x="-50.7" y="-105.4" width="11.4" height="14.9" id="mask-6_00000137123934721058726400000000362466886150103944_">
			<g style="filter:url(#Adobe_OpacityMaskFilter_00000004532825106381384330000013688023954664986045_);">
				<polygon id="path-5_00000135691550838512245730000016740477525647249289_" class="st2" points="-245,-90.2 5,-90.2 5,-112 
					-245,-112 				"/>
			</g>
		</mask>
		<path id="Fill-25" class="st19" d="M-41.1-90.5v-9.5c0-2.4-0.7-3.9-3-3.9c-2.8,0-4.7,2.7-4.7,6.4v7h-1.9v-14.6h1.9
			c0,1-0.1,2.5-0.3,3.4l0.1,0c0.8-2.2,2.7-3.7,5.3-3.7c3.4,0,4.4,2.1,4.4,4.7v10.2H-41.1z"/>
		<defs>
			
				<filter id="Adobe_OpacityMaskFilter_00000056428098640344006560000013278794328024512927_" filterUnits="userSpaceOnUse" x="-29.5" y="-110.4" width="17" height="19.9">
				<feColorMatrix  type="matrix" values="1 0 0 0 0  0 1 0 0 0  0 0 1 0 0  0 0 0 1 0"/>
			</filter>
		</defs>
		
			<mask maskUnits="userSpaceOnUse" x="-29.5" y="-110.4" width="17" height="19.9" id="mask-6_00000007411669828080091420000009025581683931308715_">
			<g style="filter:url(#Adobe_OpacityMaskFilter_00000056428098640344006560000013278794328024512927_);">
				<polygon id="path-5_00000013187566165410603090000005941638295339214759_" class="st2" points="-245,-90.2 5,-90.2 5,-112 
					-245,-112 				"/>
			</g>
		</mask>
		<path id="Fill-26" class="st21" d="M-20.1-105.7c-0.4-1-0.7-1.8-0.9-2.7h0c-0.3,0.8-0.6,1.7-0.9,2.6l-3.2,8.6h8.1L-20.1-105.7z
			 M-14.7-90.5l-1.8-5.1h-9.2l-1.9,5.1h-2l7.5-19.9h2l7.5,19.9H-14.7z"/>
		<defs>
			
				<filter id="Adobe_OpacityMaskFilter_00000043424723889537273280000007862818992067070859_" filterUnits="userSpaceOnUse" x="-11.2" y="-110.6" width="16.2" height="20.4">
				<feColorMatrix  type="matrix" values="1 0 0 0 0  0 1 0 0 0  0 0 1 0 0  0 0 0 1 0"/>
			</filter>
		</defs>
		
			<mask maskUnits="userSpaceOnUse" x="-11.2" y="-110.6" width="16.2" height="20.4" id="mask-6_00000095297222513897392730000012193821186044121999_">
			<g style="filter:url(#Adobe_OpacityMaskFilter_00000043424723889537273280000007862818992067070859_);">
				<polygon id="path-5_00000019641487092738363420000015979600253098471582_" class="st2" points="-245,-90.2 5,-90.2 5,-112 
					-245,-112 				"/>
			</g>
		</mask>
		<path id="Fill-27" class="st23" d="M-1.4-90.3c-6,0-9.8-3.6-9.8-9.8c0-6,3.5-10.5,10.4-10.5c1.9,0,3.6,0.3,5.4,0.9l-0.4,1.7
			c-1.7-0.7-3.5-1-5.2-1c-5.8,0-8.2,4.2-8.2,8.7c0,5.5,3.1,8.5,8.1,8.5c1.6,0,2.9-0.2,4.2-0.6v-7.9H5v9.1C3-90.6,0.6-90.3-1.4-90.3"
			/>
	</g>
</g>
</svg>
