<?xml version="1.0" encoding="utf-8"?>
<!-- Generator: Adobe Illustrator 26.5.0, SVG Export Plug-In . SVG Version: 6.00 Build 0)  -->
<svg version="1.1" id="Layer_1" xmlns="http://www.w3.org/2000/svg" xmlns:xlink="http://www.w3.org/1999/xlink" x="0px" y="0px"
	 width="200px" height="768px" viewBox="0 0 200 768" style="enable-background:new 0 0 200 768;" xml:space="preserve">
<style type="text/css">
	.st0{fill:none;stroke:#004584;stroke-width:3;}
	.st1{fill:none;stroke:#000000;stroke-width:3;}
	.st2{fill:none;stroke:#FFFFFF;stroke-width:3;}
	.st3{fill:#FFFFFF;}
</style>
<g id="arrow-right" transform="translate(0 1.061)">
	<path id="Pfad_3" class="st0" d="M0,7.4h34"/>
	<path id="Pfad_4" class="st0" d="M27,0.4l7,7l-7,7"/>
</g>
<g id="arrow-right_00000107564255552291084900000001633575781542353329_" transform="translate(0 1.061)">
	<path id="Pfad_3_00000160891284396408051140000011866319152365260161_" class="st1" d="M100,7.4h38"/>
	<path id="Pfad_4_00000034048550842522881230000004436826586324555652_" class="st1" d="M132,0.4l7,7l-7,7"/>
</g>
<g id="arrow-right_00000107583893723213834240000005922257142873116300_" transform="translate(0 1.061)">
	<path id="Pfad_3_00000155130359012369533780000009028550021085013673_" class="st2" d="M0,47.4h34"/>
	<path id="Pfad_4_00000041281036875943826700000018369560523607893895_" class="st2" d="M27,40.4l7,7l-7,7"/>
</g>
<g id="arrow-right_00000179644740166243025360000002026226049138596271_" transform="translate(0 1.061)">
	<path id="Pfad_3_00000147215611445924311560000008636997717203222679_" class="st2" d="M100,47.4h38"/>
	<path id="Pfad_4_00000119087176203942678080000014123562004479039148_" class="st2" d="M132,40.4l7,7l-7,7"/>
</g>
<g id="external-link" transform="translate(0 2.25)">
	<path id="Pfad_3_00000085948770400654791610000007619844415700755329_" class="st0" d="M0,96.8h19l12-13"/>
	<path id="Pfad_4_00000046321414135598453040000015357303708953623726_" class="st0" d="M21.5,83.2h9.9v9.9"/>
</g>
<g id="external-link_00000036953914011240394900000013911421878965298566_" transform="translate(0 2.25)">
	<path id="Pfad_3_00000141435597788603826030000016723598127920304782_" class="st1" d="M100,96.8h19l16-17"/>
	<path id="Pfad_4_00000110464268688432572670000001244365033554910641_" class="st1" d="M125.5,79.2h9.9v9.9"/>
</g>
<g id="arrow-up" transform="translate(1.061 2.121)">
	<path id="Pfad_3_00000048495466706097330810000012135778261464131210_" class="st0" d="M7.4,141.4v-16"/>
	<path id="Pfad_4_00000059277370228083854190000001516438238568971922_" class="st0" d="M0.4,131.4l7-7l7,7"/>
</g>
<g id="arrow-up_00000050626306242148761510000001673865286667772592_" transform="translate(1.061 2.121)">
	<path id="Pfad_3_00000075868519118747592540000006981302577674639761_" class="st1" d="M107.4,141.4v-20"/>
	<path id="Pfad_4_00000122687457774962011090000004814890604968967611_" class="st1" d="M100.4,126.4l7-7l7,7"/>
</g>
<g id="instagram" transform="translate(0.5 0.5)">
	<path id="Vereinigungsmenge_3" class="st3" d="M13.6,207.4c-2,0-4-0.4-5.8-1.1c-1.6-0.6-3.1-1.5-4.3-2.8c-1.2-1.2-2.2-2.6-2.8-4.3
		c-0.7-1.9-1.1-3.8-1.1-5.8c-0.1-2.6-0.1-3.4-0.1-9.9s0-7.3,0.1-9.9c0-2,0.4-4,1.1-5.8c0.6-1.6,1.5-3.1,2.8-4.3
		c1.2-1.2,2.6-2.2,4.3-2.8c1.9-0.7,3.8-1.1,5.8-1.1c2.6-0.1,3.4-0.1,9.9-0.1s7.3,0,9.9,0.1c2,0,4,0.4,5.8,1.1
		c1.6,0.6,3.1,1.5,4.3,2.8c1.2,1.2,2.2,2.6,2.8,4.3c0.7,1.9,1.1,3.8,1.1,5.8c0.1,2.6,0.1,3.4,0.1,9.9s0,7.3-0.1,9.9
		c0,2-0.4,4-1.1,5.8c-0.6,1.6-1.5,3.1-2.8,4.3c-1.2,1.2-2.6,2.2-4.3,2.8c-1.9,0.7-3.8,1.1-5.8,1.1c-2.6,0.1-3.4,0.1-9.9,0.1
		S16.2,207.5,13.6,207.4z M13.8,164c-1.5,0-3,0.3-4.5,0.8c-1,0.4-2,1-2.8,1.8c-0.8,0.8-1.4,1.7-1.8,2.8c-0.5,1.4-0.8,2.9-0.8,4.5
		c-0.1,2.5-0.1,3.3-0.1,9.7s0,7.2,0.1,9.7c0,1.5,0.3,3,0.8,4.5c0.4,1,1,2,1.8,2.8c0.8,0.8,1.7,1.4,2.8,1.8c1.4,0.5,2.9,0.8,4.5,0.8
		c2.5,0.1,3.3,0.1,9.7,0.1s7.2,0,9.7-0.1c1.5,0,3-0.3,4.5-0.8c1-0.4,2-1,2.8-1.8c0.8-0.8,1.4-1.7,1.8-2.8c0.5-1.4,0.8-2.9,0.8-4.5
		c0.1-2.5,0.1-3.3,0.1-9.7s0-7.2-0.1-9.7c0-1.5-0.3-3-0.8-4.5c-0.4-1-1-2-1.8-2.8c-0.8-0.8-1.7-1.4-2.8-1.8
		c-1.4-0.5-2.9-0.8-4.5-0.8c-2.5-0.1-3.3-0.1-9.7-0.1S16.3,163.9,13.8,164L13.8,164z M11.2,183.5c0-6.8,5.5-12.3,12.3-12.3l0,0
		c6.8,0,12.3,5.5,12.3,12.3c0,0,0,0,0,0c0,6.8-5.5,12.3-12.3,12.3c0,0,0,0,0,0C16.7,195.8,11.2,190.3,11.2,183.5
		C11.2,183.5,11.2,183.5,11.2,183.5z M15.5,183.5c0,4.4,3.6,8,8,8s8-3.6,8-8s-3.6-8-8-8S15.5,179.1,15.5,183.5z M33.4,170.7
		c0-1.6,1.3-2.9,2.9-2.9c1.6,0,2.9,1.3,2.9,2.9s-1.3,2.9-2.9,2.9C34.7,173.6,33.4,172.3,33.4,170.7z"/>
</g>
</svg>
