<?xml version="1.0" encoding="utf-8"?>
<!-- Generator: Adobe Illustrator 26.0.1, SVG Export Plug-In . SVG Version: 6.00 Build 0)  -->
<svg version="1.1" id="Layer_1" xmlns="http://www.w3.org/2000/svg" xmlns:xlink="http://www.w3.org/1999/xlink" x="0px" y="0px"
	 width="200px" height="600px" viewBox="0 0 200 600" style="enable-background:new 0 0 200 600;" xml:space="preserve">
<style type="text/css">
	.st0{fill:#EBEBEB;}
	.st1{fill:#1D1D1B;}
	.st2{fill:none;stroke:#FFFFFF;stroke-width:2;stroke-linecap:round;stroke-linejoin:round;}
	.st3{fill:none;stroke:#FFFFFF;stroke-width:2;stroke-miterlimit:10;}
</style>
<g>
	<rect x="14.9" y="118" class="st0" width="111" height="16"/>
	<rect x="14.9" y="86" class="st0" width="111" height="16"/>
	<rect x="14.9" y="54" class="st0" width="111" height="16"/>
	<polygon class="st0" points="70,0 0,38.1 140,38.1 	"/>
</g>
<g>
	<circle class="st1" cx="126.5" cy="94" r="40"/>
	<g>
		<circle class="st2" cx="122.8" cy="89.6" r="14.7"/>
		<line class="st2" x1="146.1" y1="113" x2="133.1" y2="100"/>
	</g>
</g>
<g>
	<rect x="14.9" y="318" class="st0" width="111" height="16"/>
	<rect x="14.9" y="286" class="st0" width="111" height="16"/>
	<rect x="14.9" y="254" class="st0" width="111" height="16"/>
	<polygon class="st0" points="70,200 0,238.1 140,238.1 	"/>
</g>
<g>
	<circle class="st1" cx="126.5" cy="294" r="40"/>
	<polyline class="st3" points="108,293.2 121.5,306.8 147,281.2 	"/>
</g>
<g>
	<rect x="14.9" y="518" class="st0" width="111" height="16"/>
	<rect x="14.9" y="486" class="st0" width="111" height="16"/>
	<rect x="14.9" y="454" class="st0" width="111" height="16"/>
	<polygon class="st0" points="70,400 0,438.1 140,438.1 	"/>
</g>
<g>
	<circle class="st1" cx="126.5" cy="494" r="40"/>
	<path class="st3" d="M108.6,494.5c-3.8-3.8-4.8-9.4-2.8-14.1l8.5,8.5c2,2,5.1,2,7.1,0c2-2,2-5.1,0-7.1l-8.5-8.5
		c4.7-1.9,10.3-1,14.1,2.8c3.8,3.8,4.8,9.4,2.8,14.1l17,17c2,2,2,5.1,0,7.1c-2,2-5.1,2-7.1,0l-17-17
		C118,499.2,112.4,498.3,108.6,494.5z"/>
</g>
</svg>
